<?xml version="1.0" encoding="utf-8"?>
<!-- Generator: Adobe Illustrator 19.0.0, SVG Export Plug-In . SVG Version: 6.00 Build 0)  -->
<svg version="1.1" id="Layer_1" xmlns="http://www.w3.org/2000/svg" xmlns:xlink="http://www.w3.org/1999/xlink" x="0px" y="0px"
	 viewBox="-3400.5 -1655.1 16364.5 4111.2" style="enable-background:new -3400.5 -1655.1 16364.5 4111.2;" xml:space="preserve">
<style type="text/css">
	.st0{fill:#1F4A83;}
	.st1{fill:none;stroke:#FFFFFF;stroke-width:60;stroke-miterlimit:10;}
	.st2{fill:none;stroke:#FFFFFF;stroke-width:10;stroke-miterlimit:10;}
	.st3{fill:#FFFFFF;}
</style>
<g>
	<g>
		<rect x="-3492.8" y="-1654.2" class="st0" width="16456.8" height="4109.1"/>
	</g>
	<g>
		<line class="st1" x1="7788" y1="400.5" x2="12964" y2="400.5"/>
		<line class="st1" x1="-3492.8" y1="400.5" x2="1683.2" y2="400.5"/>
	</g>
	<g>
		<g>
			<path class="st2" d="M4006.8,1936.5c-12.8-6.7-25.6-12.8-38.9-32.3c-19.5,0-45.1-6.7-78.4-38.9c-19.5,0-45.1-6.7-78.4-45.1
				c-19.5,0-45.1-12.8-72.3-51.7c-19.5,0-45.1-12.8-72.3-51.7c-19.5,0-38.9-19.5-64.5-57.9c-19.5-6.7-38.9-19.5-64.5-57.9
				c-19.5-6.7-38.9-19.5-57.9-64.5c-19.5-6.7-38.9-19.5-57.9-64.5c-19.5-6.7-38.9-25.6-51.7-72.3c-19.5-6.7-38.9-25.6-51.7-72.3
				c-19.5-6.7-32.3-25.6-45.1-78.4c-19.5-12.8-32.3-32.3-38.9-78.4c-19.5-12.8-32.3-32.3-38.9-78.4c-19.5-12.8-32.3-32.3-32.3-85.1
				c-19.5-12.8-25.6-32.3-25.6-85.1c-12.8-12.8-25.6-38.9-25.6-85.1c-12.8-12.8-25.6-38.9-19.5-85.1c-12.8-12.8-19.5-38.9-12.8-85.1
				c-12.8-12.8-19.5-38.9-12.8-91.8c-12.8-12.8-19.5-38.9-6.7-85.1c-12.8-19.5-19.5-38.9,0-91.8c-12.8-19.5-12.8-45.1,0-91.8
				c-6.7-19.5-12.8-45.1,6.7-85.1c-6.7-19.5-6.7-45.1,12.8-91.8c-6.7-19.5-6.7-45.1,19.5-85.1c-6.7-19.5-6.7-45.1,19.5-85.1
				c-6.7-19.5,0-45.1,25.6-85.1c-6.7-19.5,0-45.1,32.3-85.1c-6.7-19.5,0-45.1,32.3-78.4c0-19.5,6.7-45.1,38.9-78.4
				c0-19.5,6.7-45.1,45.1-78.4c0-19.5,6.7-45.1,45.1-78.4c0-19.5,12.8-45.1,51.7-72.3c0-19.5,12.8-38.9,51.7-72.3
				c0-19.5,19.5-38.9,57.9-64.5c6.7-19.5,19.5-38.9,57.9-64.5c6.7-19.5,19.5-38.9,64.5-57.9c6.7-19.5,25.6-38.9,64.5-57.9
				c6.7-19.5,25.6-38.9,72.3-51.7c6.7-19.5,25.6-32.3,72.3-51.7c6.7-19.5,25.6-32.3,78.4-45.1c6.7-19.5,32.3-32.3,78.4-38.9
				c12.8-19.5,32.3-32.3,78.4-38.9c12.8-19.5,32.3-25.6,85.1-32.3c12.8-12.8,32.3-25.6,78.4-25.6c12.8-19.5,38.9-25.6,85.1-25.6
				c12.8-12.8,38.9-25.6,85.1-19.5c12.8-12.8,38.9-19.5,85.1-12.8c12.8-12.8,38.9-19.5,85.1-12.8c19.5-12.8,38.9-19.5,91.8-6.7
				c19.5-12.8,38.9-12.8,85.1,0c19.5-12.8,45.1-12.8,91.8,0c19.5-6.7,45.1-12.8,85.1,6.7c19.5-12.8,45.1-6.7,91.8,12.8
				c19.5-6.7,45.1-6.7,85.1,19.5c19.5-6.7,45.1-6.7,85.1,19.5c19.5-6.7,45.1,0,85.1,25.6c19.5-6.7,45.1,0,78.4,32.3
				c19.5-6.7,45.1,0,78.4,32.3c19.5-6.7,45.1,6.7,85.1,38.9c19.5,0,45.1,6.7,78.4,45.1c19.5,0,45.1,6.7,78.4,45.1
				c19.5,0,45.1,12.8,72.3,51.7c19.5,0,45.1,12.8,72.3,51.7c19.5,0,38.9,19.5,64.5,57.9c19.5,6.7,38.9,19.5,64.5,57.9
				c19.5,6.7,38.9,19.5,57.9,64.5c19.5,6.7,38.9,19.5,57.9,64.5c19.5,6.7,38.9,25.6,51.7,72.3c19.5,6.7,38.9,25.6,51.7,72.3
				c19.5,6.7,32.3,25.6,45.1,78.4c19.5,12.8,32.3,32.3,38.9,78.4c19.5,12.8,32.3,32.3,38.9,78.4c19.5,12.8,32.3,32.3,32.3,85.1
				c19.5,12.8,25.6,32.3,25.6,85.1c12.8,12.8,25.6,38.9,25.6,85.1c12.8,12.8,25.6,38.9,19.5,85.1c12.8,12.8,19.5,38.9,19.5,85.1
				c12.8,12.8,19.5,38.9,12.8,85.1c12.8,19.5,19.5,38.9,6.7,85.1c12.8,19.5,12.8,38.9,0,85.1c12.8,19.5,12.8,45.1,0,91.8
				c12.8,19.5,12.8,45.1-6.7,91.8c6.7,19.5,6.7,45.1-12.8,85.1c6.7,19.5,6.7,45.1-12.8,91.8c6.7,19.5,6.7,45.1-19.5,85.1
				c6.7,19.5,0,45.1-25.6,85.1c6.7,19.5,0,45.1-32.3,85.1c0,19.5-6.7,45.1-32.3,78.4c6.7,19.5-6.7,45.1-38.9,78.4
				c0,19.5-6.7,45.1-38.9,78.4c0,19.5-6.7,45.1-45.1,78.4c0,19.5-12.8,45.1-51.7,72.3c0,19.5-12.8,45.1-51.7,72.3
				c0,19.5-19.5,38.9-57.9,64.5c-6.7,19.5-19.5,38.9-57.9,64.5c-6.7,19.5-19.5,38.9-64.5,64.5c-6.7,19.5-25.6,38.9-64.5,51.7
				c-6.7,19.5-25.6,38.9-72.3,51.7c-6.7,19.5-25.6,32.3-72.3,51.7c-6.7,19.5-25.6,32.3-78.4,45.1c-6.7,19.5-32.3,32.3-78.4,38.9
				c-12.8,19.5-32.3,32.3-78.4,38.9c-12.8,19.5-32.3,32.3-85.1,32.3c-12.8,12.8-32.3,25.6-78.4,25.6c-12.8,19.5-38.9,25.6-85.1,25.6
				c-12.8,12.8-38.9,19.5-85.1,19.5c-12.8,12.8-38.9,19.5-85.1,12.8c-12.8,12.8-38.9,19.5-85.1,12.8c-12.8,12.8-38.9,19.5-85.1,6.7
				c-19.5,12.8-38.9,19.5-91.8,0c-19.5,12.8-45.1,12.8-91.8,0c-19.5,6.7-45.1,12.8-85.1-6.7c-19.5,6.7-45.1,6.7-91.8-12.8
				c-19.5,6.7-45.1,6.7-85.1-19.5c-19.5,6.7-45.1,6.7-85.1-19.5c-19.5,6.7-45.1,0-85.1-25.6c-19.5,6.7-45.1,0-85.1-32.3
				c-19.5,6.7-45.1,0-78.4-32.3C4033,1942.6,4020.2,1942.6,4006.8,1936.5z M3986.2,1897.5c25.6,25.6,45.1,25.6,57.9,25.6l6.7-6.7
				l0,0c6.7,0,12.8-6.7,19.5-12.8c6.7,0,6.7-6.7,12.8-6.7c-38.9-38.9-57.9-25.6-85.1-12.8
				C4000.7,1891.4,3992.9,1897.5,3986.2,1897.5z M3908.9,1857.5c25.6,25.6,45.1,32.3,57.9,25.6l0,0l0,0c6.7,0,12.8-6.7,19.5-12.8
				c6.7,0,6.7-6.7,12.8-6.7c-25.6-32.3-45.1-32.3-64.5-25.6l0,0l0,0c-6.7,0-12.8,6.7-12.8,6.7
				C3921.7,1851.3,3915.6,1851.3,3908.9,1857.5z M3836.6,1812.4c25.6,25.6,38.9,32.3,57.9,32.3l6.7-6.7l0,0c6.7,0,12.8-6.7,19.5-6.7
				s6.7-6.7,12.8-6.7c-38.9-38.9-57.9-32.3-78.4-25.6C3843.3,1806.3,3836.6,1806.3,3836.6,1812.4z M4065.2,1936.5
				c32.3,25.6,45.1,25.6,64.5,19.5l0,0l0,0c6.7,0,12.8-6.7,19.5-12.8c6.7,0,6.7-6.7,12.8-6.7c-32.3-25.6-45.1-25.6-64.5-19.5l0,0
				l0,0c-6.7,0-12.8,6.7-19.5,6.7C4078,1929.8,4071.4,1929.8,4065.2,1936.5z M3765.9,1761.2c25.6,25.6,38.9,32.3,51.7,32.3l0,0l0,0
				c6.7,0,12.8-6.7,25.6-6.7c6.7,0,6.7-6.7,12.8-6.7c-32.3-45.1-57.9-32.3-78.4-25.6C3772.1,1761.2,3772.1,1761.2,3765.9,1761.2z
				 M4143.7,1968.7c32.3,19.5,45.1,25.6,64.5,19.5l0,0l0,0c6.7,0,12.8-6.7,19.5-12.8c6.7,0,6.7-6.7,12.8-6.7
				c-32.3-25.6-45.1-25.6-64.5-19.5l0,0l0,0c-6.7,0-12.8,6.7-12.8,12.8C4156.5,1962.1,4150.4,1962.1,4143.7,1968.7z M3693.6,1707.8
				c19.5,25.6,38.9,38.9,51.7,38.9l6.7-6.7l0,0c6.7,0,12.8-6.7,19.5-6.7c6.7,0,6.7-6.7,12.8-6.7c-32.3-45.1-51.7-38.9-78.4-32.3
				C3706.4,1707.8,3700.3,1707.8,3693.6,1707.8z M4227.7,1994.3c32.3,19.5,45.1,19.5,64.5,19.5l0,0l0,0c6.7-6.7,12.8-6.7,19.5-12.8
				c6.7-6.7,6.7-6.7,12.8-6.7c-45.1-32.3-64.5-12.8-85.1,0C4240.5,1987.6,4233.8,1994.3,4227.7,1994.3z M3629.1,1650
				c19.5,32.3,38.9,38.9,51.7,38.9l0,0l0,0c6.7,0,12.8,0,25.6-6.7c6.7,0,6.7,0,12.8-6.7c-32.3-45.1-51.7-38.9-72.3-32.3
				C3635.8,1650,3635.8,1650,3629.1,1650z M4312.8,2021.6c32.3,19.5,51.7,19.5,64.5,12.8v-6.7l0,0c6.7-6.7,12.8-6.7,19.5-12.8
				c6.7-6.7,6.7-6.7,12.8-12.8c-32.3-19.5-51.7-19.5-64.5-12.8l0,0l0,0c-6.7,6.7-12.8,6.7-12.8,12.8
				C4325.6,2014.9,4318.9,2014.9,4312.8,2021.6z M3986.2,1825.2c12.8,6.7,25.6,19.5,38.9,32.3c19.5-6.7,45.1,0,78.4,32.3
				c19.5-6.7,45.1,0,78.4,32.3c19.5-6.7,45.1,0,78.4,25.6c19.5-6.7,45.1-6.7,85.1,19.5c19.5-6.7,45.1-6.7,85.1,19.5
				c19.5-6.7,38.9-6.7,85.1,12.8c19.5-12.8,38.9-12.8,85.1,6.7c19.5-12.8,38.9-12.8,85.1,6.7c12.8-12.8,38.9-12.8,85.1,0
				c12.8-12.8,38.9-19.5,85.1-6.7c12.8-12.8,38.9-19.5,85.1-6.7c12.8-12.8,38.9-19.5,85.1-12.8c12.8-12.8,38.9-19.5,85.1-12.8
				c12.8-12.8,32.3-25.6,85.1-19.5c12.8-12.8,32.3-25.6,78.4-25.6c12.8-19.5,32.3-32.3,78.4-32.3c12.8-19.5,32.3-32.3,78.4-32.3
				c6.7-19.5,25.6-32.3,78.4-38.9c6.7-19.5,25.6-32.3,72.3-38.9c6.7-19.5,25.6-32.3,72.3-45.1c6.7-19.5,25.6-32.3,72.3-45.1
				c6.7-19.5,19.5-38.9,64.5-51.7c6.7-19.5,19.5-38.9,64.5-51.7c0-19.5,19.5-38.9,57.9-57.9c0-19.5,12.8-38.9,57.9-64.5
				c0-19.5,12.8-38.9,51.7-64.5c0-19.5,12.8-38.9,51.7-64.5c0-19.5,6.7-45.1,45.1-72.3c0-19.5,6.7-45.1,45.1-72.3
				c0-19.5,6.7-45.1,38.9-78.4c-6.7-19.5,0-45.1,32.3-78.4c-6.7-19.5,0-45.1,32.3-78.4c-6.7-19.5,0-45.1,25.6-78.4
				c-6.7-19.5-6.7-45.1,25.6-78.4c-6.7-19.5-6.7-45.1,19.5-85.1c-6.7-19.5-6.7-38.9,12.8-85.1c-6.7-19.5-12.8-38.9,12.8-85.1
				c-12.8-19.5-12.8-38.9,6.7-85.1c-12.8-12.8-12.8-38.9,0-85.1c-12.8-12.8-19.5-38.9-6.7-85.1c-12.8-12.8-19.5-38.9-6.7-85.1
				c-12.8-12.8-19.5-38.9-12.8-85.1c-12.8-12.8-25.6-38.9-19.5-85.1c-12.8-12.8-25.6-32.3-19.5-85.1c-12.8-12.8-25.6-32.3-25.6-78.4
				c-19.5-12.8-25.6-32.3-32.3-78.4c-19.5-12.8-32.3-32.3-32.3-78.4c-19.5-6.7-32.3-25.6-38.9-78.4c-19.5-6.7-32.3-25.6-38.9-72.3
				c-19.5-6.7-32.3-25.6-45.1-72.3c-19.5-6.7-32.3-25.6-45.1-64.5c-19.5-6.7-38.9-19.5-51.7-64.5c-19.5-6.7-38.9-19.5-51.7-64.5
				c-19.5,0-38.9-19.5-57.9-57.9c-19.5,0-38.9-12.8-57.9-57.9c-19.5,0-38.9-12.8-64.5-51.7c-19.5,0-45.1-12.8-72.3-51.7
				c-19.5,0-38.9-12.8-72.3-45.1c-19.5,0-45.1-6.7-72.3-45.1c-19.5,0-45.1-6.7-72.3-38.9c-19.5,6.7-45.1,0-78.4-32.3
				c-19.5,6.7-45.1,0-78.4-32.3c-19.5,6.7-45.1,0-78.4-25.6c-19.5,6.7-45.1,6.7-78.4-19.5c-19.5,6.7-45.1,6.7-85.1-19.5
				c-19.5,6.7-45.1,6.7-85.1-12.8c-19.5,12.8-38.9,12.8-85.1-6.7c-19.5,12.8-38.9,12.8-85.1-6.7c-12.8,12.8-38.9,12.8-85.1,0
				c-12.8,12.8-38.9,19.5-85.1,6.7c-12.8,12.8-38.9,19.5-85.1,6.7c-12.8,12.8-38.9,19.5-85.1,12.8c-12.8,12.8-38.9,25.6-85.1,19.5
				c-12.8,12.8-32.3,25.6-85.1,19.5c-12.8,12.8-32.3,25.6-78.4,25.6c-12.8,19.5-32.3,25.6-78.4,32.3c-12.8,19.5-32.3,32.3-78.4,32.3
				c-6.7,19.5-25.6,32.3-78.4,38.9c-6.7,19.5-25.6,32.3-72.3,38.9c-6.7,19.5-25.6,32.3-72.3,45.1c-6.7,19.5-25.6,38.9-72.3,45.1
				c-6.7,19.5-19.5,38.9-64.5,51.7c-6.7,19.5-19.5,38.9-64.5,57.9c-6.7,19.5-19.5,38.9-57.9,57.9c0,19.5-12.8,38.9-57.9,57.9
				c0,19.5-12.8,38.9-51.7,64.5c0,19.5-12.8,45.1-51.7,72.3c0,19.5-12.8,38.9-45.1,72.3c0,19.5-6.7,45.1-45.1,72.3
				c0,19.5-6.7,45.1-38.9,78.4c6.7,19.5,0,45.1-32.3,78.4c6.7,19.5,0,45.1-32.3,78.4c6.7,19.5,6.7,45.1-25.6,85.1
				c6.7,19.5,6.7,45.1-25.6,78.4c6.7,19.5,6.7,45.1-19.5,85.1c6.7,19.5,12.8,45.1-12.8,85.1c6.7,19.5,12.8,38.9-12.8,85.1
				c12.8,19.5,12.8,38.9-6.7,85.1c12.8,12.8,12.8,38.9,0,85.1c12.8,12.8,19.5,38.9,6.7,85.1c12.8,12.8,19.5,38.9,6.7,85.1
				c12.8,12.8,19.5,38.9,12.8,85.1c12.8,12.8,19.5,38.9,12.8,85.1c12.8,12.8,25.6,32.3,19.5,85.1c19.5,12.8,25.6,32.3,25.6,78.4
				c19.5,12.8,25.6,32.3,32.3,78.4c19.5,12.8,32.3,32.3,32.3,78.4c19.5,6.7,32.3,25.6,38.9,78.4c19.5,6.7,32.3,25.6,38.9,72.3
				c19.5,6.7,32.3,25.6,45.1,72.3c19.5,6.7,38.9,25.6,45.1,72.3c19.5,6.7,38.9,19.5,51.7,64.5c19.5,6.7,38.9,19.5,57.9,64.5
				c19.5,6.7,38.9,19.5,57.9,57.9c19.5,0,38.9,12.8,64.5,57.9c19.5,0,38.9,12.8,64.5,51.7c19.5,0,38.9,12.8,72.3,51.7
				c19.5,0,45.1,6.7,72.3,45.1c19.5,0,38.9,6.7,72.3,45.1C3960.7,1819.1,3973.4,1819.1,3986.2,1825.2z M3563.4,1591
				c19.5,32.3,32.3,38.9,51.7,45.1l0,0l0,0c6.7,0,12.8,0,25.6-6.7c6.7,0,12.8,0,12.8-6.7c-25.6-45.1-51.7-45.1-72.3-38.9
				C3576.2,1591,3570.1,1591,3563.4,1591z M4488,2021.6c-45.1-25.6-64.5-6.7-78.4,6.7c-6.7,6.7-6.7,6.7-12.8,12.8
				c32.3,12.8,51.7,12.8,64.5,6.7l0,0l0,0c6.7-6.7,12.8-12.8,19.5-19.5C4488,2027.7,4488,2027.7,4488,2021.6L4488,2021.6z
				 M3505.6,1526.5c12.8,32.3,32.3,45.1,45.1,45.1h6.7l0,0c6.7,0,12.8,0,25.6,0c6.7,0,6.7,0,12.8,0c-25.6-51.7-45.1-45.1-72.3-38.9
				C3511.7,1526.5,3511.7,1526.5,3505.6,1526.5z M4507.5,2027.7c-6.7,6.7-6.7,6.7-12.8,12.8c-6.7,6.7-6.7,6.7-12.8,12.8
				c32.3,12.8,51.7,12.8,64.5,6.7v-6.7l0,0c6.7-6.7,12.8-12.8,12.8-19.5c0-6.7,6.7-6.7,12.8-12.8
				C4540.9,2014.9,4526.4,2021.6,4507.5,2027.7L4507.5,2027.7L4507.5,2027.7z M3446.1,1460.3c12.8,32.3,32.3,45.1,45.1,45.1l0,0l0,0
				c6.7,0,12.8,0,25.6,0c6.7,0,6.7,0,12.8,0c-19.5-51.7-45.1-45.1-64.5-45.1C3460,1460.3,3452.7,1460.3,3446.1,1460.3z
				 M4663.3,2041.1c-51.7-19.5-64.5-6.7-78.4,12.8c-6.7,6.7-6.7,6.7-12.8,12.8c32.3,12.8,51.7,12.8,64.5,6.7v-6.7l0,0
				c6.7-6.7,12.8-12.8,19.5-19.5C4657.2,2047.2,4663.3,2041.1,4663.3,2041.1z M3394.3,1396.3c12.8,32.3,25.6,45.1,38.9,51.7h6.7l0,0
				c6.7,0,12.8,0,25.6,0c6.7,0,6.7,0,12.8,0c-12.8-38.9-32.3-45.1-45.1-51.7l0,0l0,0c-6.7,0-12.8,0-19.5,0
				C3401,1396.3,3401,1396.3,3394.3,1396.3z M4748.4,2041.1c-51.7-19.5-64.5,0-78.4,19.5c-6.7,6.7-6.7,12.8-12.8,12.8
				c32.3,12.8,51.7,6.7,64.5,0v-6.7l0,0c6.7-6.7,12.8-12.8,12.8-19.5C4742.3,2047.2,4748.4,2041.1,4748.4,2041.1z M3343.1,1324
				c12.8,32.3,25.6,45.1,38.9,51.7h6.7l0,0c6.7,0,12.8,0,25.6,0c6.7,0,6.7,0,12.8,0c-12.8-51.7-38.9-51.7-64.5-51.7
				C3355.9,1324,3349.3,1324,3343.1,1324z M4833.5,2034.4c-51.7-12.8-64.5,0-78.4,25.6c-6.7,6.7-6.7,12.8-12.8,12.8
				c38.9,6.7,51.7,6.7,64.5-6.7v-6.7l0,0c6.7-6.7,6.7-12.8,12.8-19.5C4827.4,2047.2,4833.5,2041.1,4833.5,2034.4z M3296.4,1246.6
				c6.7,32.3,19.5,45.1,32.3,51.7h6.7v6.7c6.7,0,12.8,0,25.6,0c6.7,0,6.7,0,12.8,0c-6.7-38.9-25.6-51.7-38.9-51.7l0,0l0,0
				c-6.7,0-12.8,0-19.5,0C3309.2,1246.6,3303.1,1246.6,3296.4,1246.6z M4917.5,2027.7c-51.7-12.8-64.5,6.7-78.4,25.6
				c0,6.7-6.7,12.8-6.7,12.8c32.3,6.7,51.7,0,64.5-6.7v-6.7l0,0c6.7-6.7,6.7-12.8,12.8-19.5
				C4917.5,2041.1,4917.5,2034.4,4917.5,2027.7z M3258,1167.6c6.7,38.9,19.5,51.7,32.3,57.9l0,0l0,0c6.7,0,12.8,0,25.6,6.7
				c6.7,0,12.8,0,12.8,0c-12.8-51.7-32.3-57.9-57.9-57.9C3264.1,1174.3,3258,1174.3,3258,1167.6z M4938.1,2034.4
				c-6.7,6.7-6.7,12.8-6.7,12.8c0,6.7-6.7,12.8-6.7,12.8c32.3,6.7,51.7,0,64.5-12.8v-6.7l0,0c6.7-6.7,6.7-12.8,12.8-19.5
				c0-6.7,6.7-6.7,6.7-12.8C4963.7,2007.1,4950.9,2021.6,4938.1,2034.4L4938.1,2034.4L4938.1,2034.4z M3219.1,1090.3
				c6.7,38.9,19.5,51.7,32.3,57.9h6.7l0,0c6.7,0,12.8,6.7,19.5,6.7c6.7,0,6.7,0,12.8,0c-6.7-51.7-32.3-57.9-51.7-64.5
				C3225.8,1097,3219.1,1097,3219.1,1090.3z M5087.7,2001c-51.7-6.7-64.5,12.8-72.3,38.9c0,6.7-6.7,12.8-6.7,12.8
				c38.9,6.7,51.7-6.7,64.5-12.8v-6.7l0,0c6.7-6.7,6.7-12.8,12.8-19.5C5087.7,2007.1,5087.7,2007.1,5087.7,2001z M3179,1011.9
				c6.7,38.9,12.8,51.7,25.6,57.9l0,0l0,0c6.7,0,12.8,6.7,25.6,6.7c6.7,0,12.8,0,12.8,0c-6.7-38.9-19.5-51.7-32.3-57.9l0,0
				c-6.7,0-12.8,0-19.5-6.7C3193.5,1011.9,3185.7,1011.9,3179,1011.9z M5107.2,2001c0,6.7-6.7,12.8-6.7,19.5
				c0,6.7-6.7,12.8-6.7,19.5c38.9,0,51.7-6.7,64.5-19.5l0,0l0,0c6.7-6.7,6.7-12.8,12.8-25.6c0-6.7,0-6.7,6.7-12.8
				C5132.8,1974.9,5113.3,1987.6,5107.2,2001L5107.2,2001L5107.2,2001z M3179,992.4L3179,992.4c6.7,6.7,12.8,6.7,25.6,6.7
				c6.7,0,6.7,0,12.8,0c0-51.7-25.6-57.9-45.1-64.5c-6.7,0-12.8-6.7-19.5-6.7C3153.4,966.8,3166.2,979.6,3179,992.4L3179,992.4z
				 M5190.7,1981.5c0,6.7-6.7,12.8-6.7,19.5c0,6.7-6.7,12.8-6.7,19.5c32.3,0,51.7-6.7,57.9-19.5v-6.7h6.7c6.7-6.7,6.7-12.8,6.7-19.5
				c0-6.7,0-6.7,6.7-12.8C5211.3,1955.9,5197.3,1968.7,5190.7,1981.5L5190.7,1981.5L5190.7,1981.5z M3153.4,907.3
				c6.7,6.7,12.8,6.7,19.5,6.7c6.7,0,6.7,0,12.8,6.7c0-57.9-19.5-64.5-45.1-72.3c-6.7,0-12.8-6.7-12.8-6.7
				C3127.3,881.7,3134,894.5,3153.4,907.3L3153.4,907.3L3153.4,907.3z M5334.2,1929.8c-51.7,0-57.9,25.6-64.5,45.1
				c0,6.7,0,12.8-6.7,12.8c32.3,0,51.7-12.8,57.9-19.5v-6.7l0,0c6.7-6.7,6.7-12.8,6.7-25.6
				C5334.2,1936.5,5334.2,1929.8,5334.2,1929.8z M3127.3,823.3c6.7,6.7,12.8,6.7,19.5,6.7c6.7,0,6.7,0,12.8,6.7
				c0-38.9-6.7-51.7-19.5-64.5l0,0l0,0c-6.7,0-12.8-6.7-19.5-6.7c-6.7,0-12.8-6.7-19.5-6.7C3108.4,796.6,3114.5,817.2,3127.3,823.3
				L3127.3,823.3L3127.3,823.3z M5412.6,1897.5c-51.7,6.7-57.9,25.6-64.5,51.7c0,6.7,0,12.8-6.7,19.5c38.9-6.7,51.7-12.8,57.9-25.6
				v-6.7l0,0c0-6.7,6.7-12.8,6.7-19.5C5412.6,1904.2,5412.6,1897.5,5412.6,1897.5z M3108.4,738.2c6.7,6.7,12.8,6.7,19.5,12.8
				c6.7,0,6.7,6.7,12.8,6.7c6.7-51.7-12.8-64.5-38.9-72.3c-6.7,0-12.8-6.7-19.5-6.7C3088.9,712.6,3095,725.4,3108.4,738.2
				L3108.4,738.2L3108.4,738.2z M5432.1,1891.4c0,6.7,0,12.8-6.7,19.5c0,6.7,0,12.8-6.7,19.5c32.3-6.7,51.7-12.8,57.9-25.6v-6.7h6.7
				c0-6.7,6.7-12.8,6.7-25.6c0-6.7,0-12.8,0-12.8C5451,1864.1,5438.2,1876.9,5432.1,1891.4L5432.1,1891.4L5432.1,1891.4z M3095,653
				c6.7,6.7,12.8,6.7,19.5,12.8c6.7,0,6.7,6.7,12.8,6.7c6.7-51.7-12.8-64.5-32.3-78.4c-6.7,0-12.8-6.7-12.8-6.7
				C3076.1,620.8,3076.1,640.3,3095,653L3095,653L3095,653z M5562.3,1812.4c-51.7,12.8-57.9,32.3-57.9,57.9c0,6.7,0,12.8,0,19.5
				c32.3-6.7,51.7-19.5,57.9-32.3l0,0l0,0c0-6.7,0-12.8,6.7-25.6C5562.3,1825.2,5562.3,1819.1,5562.3,1812.4z M3101.7,582.4
				c6.7,0,6.7,6.7,12.8,6.7c6.7-38.9,0-51.7-12.8-64.5l0,0l0,0c-6.7-6.7-12.8-6.7-19.5-12.8c-6.7,0-12.8-6.7-12.8-6.7
				c-6.7,38.9,0,51.7,6.7,64.5l0,0l0,0C3088.9,575.7,3095,575.7,3101.7,582.4L3101.7,582.4z M5634.6,1767.3
				c-51.7,12.8-51.7,32.3-57.9,57.9c0,6.7,0,12.8,0,19.5c32.3-6.7,45.1-19.5,51.7-32.3v-6.7h6.7c0-6.7,0-12.8,0-19.5
				C5635.2,1779.6,5634.6,1774,5634.6,1767.3z M3076.1,484.5c6.7,6.7,12.8,6.7,19.5,12.8c6.7,0,6.7,6.7,12.8,6.7
				c12.8-38.9,0-57.9-12.8-72.3l0,0l0,0c-6.7-6.7-6.7-6.7-12.8-12.8c-6.7-6.7-12.8-6.7-12.8-12.8
				C3063.3,445.5,3063.3,465,3076.1,484.5L3076.1,484.5L3076.1,484.5z M5705.3,1721.2c-51.7,19.5-51.7,38.9-51.7,64.5
				c0,6.7,0,12.8,0,19.5c32.3-12.8,45.1-25.6,51.7-38.9v-6.7l0,0c0-6.7,0-12.8,0-25.6C5705.3,1727.3,5705.3,1727.3,5705.3,1721.2z
				 M3076.1,392.7c6.7,6.7,12.8,12.8,19.5,12.8c6.7,0,6.7,6.7,12.8,6.7c19.5-51.7,0-64.5-19.5-78.4c-6.7-6.7-12.8-6.7-12.8-12.8
				C3056.6,360.4,3063.3,379.9,3076.1,392.7L3076.1,392.7L3076.1,392.7z M5724.7,1714.5c0,6.7,0,12.8,0,19.5c0,6.7,0,12.8,0,19.5
				c32.3-12.8,45.1-25.6,51.7-38.9v-6.7l0,0c0-6.7,0-12.8,0-25.6c0-6.7,0-12.8,0-12.8C5737.5,1682.2,5724.7,1695,5724.7,1714.5
				L5724.7,1714.5L5724.7,1714.5z M3076.1,308.7c6.7,6.7,12.8,12.8,19.5,19.5c6.7,0,6.7,6.7,12.8,6.7c19.5-51.7,0-64.5-12.8-78.4
				c-6.7-6.7-6.7-6.7-12.8-12.8C3063.3,276.4,3069.4,289.8,3076.1,308.7L3076.1,308.7L3076.1,308.7z M5835.4,1611.6
				c-51.7,19.5-45.1,45.1-45.1,64.5c0,6.7,0,12.8,0,19.5c32.3-12.8,45.1-32.3,45.1-45.1l0,0l0,0c0-6.7,0-19.5,0-25.6
				C5842.1,1624.4,5842.1,1617.7,5835.4,1611.6z M3082.2,223.6c6.7,6.7,12.8,12.8,19.5,12.8c6.7,0,6.7,6.7,12.8,12.8
				c19.5-38.9,12.8-51.7,0-64.5l0,0l0,0c-6.7-6.7-6.7-6.7-12.8-12.8c-6.7-6.7-6.7-6.7-12.8-12.8
				C3076.1,185.2,3076.1,204.7,3082.2,223.6L3082.2,223.6L3082.2,223.6z M5901.1,1552.1c-51.7,25.6-45.1,45.1-45.1,72.3
				c0,6.7,0,12.8,0,19.5c32.3-19.5,45.1-32.3,45.1-45.1v-6.7h6.7c0-6.7,0-12.8,0-19.5C5901.1,1564.8,5901.1,1558.7,5901.1,1552.1z
				 M3095,133.4c6.7,6.7,12.8,12.8,19.5,19.5c6.7,6.7,6.7,6.7,12.8,12.8c25.6-45.1,6.7-64.5-6.7-85.1c-6.7-6.7-6.7-6.7-12.8-12.8
				C3088.9,100.1,3088.9,119.5,3095,133.4L3095,133.4L3095,133.4z M5959.5,1494.2c-45.1,25.6-45.1,51.7-38.9,72.3
				c0,6.7,0,12.8,0,19.5c32.3-19.5,38.9-32.3,45.1-45.1v-6.7l0,0c0-6.7,0-12.8-6.7-25.6C5959.5,1500.3,5959.5,1494.2,5959.5,1494.2z
				 M3114.5,48.3c6.7,6.7,6.7,12.8,12.8,19.5c0,0,6.7,6.7,6.7,12.8c25.6-45.1,12.8-64.5,0-85.1c-6.7-6.7-6.7-6.7-12.8-12.8
				C3108.4,16.1,3108.4,28.9,3114.5,48.3L3114.5,48.3L3114.5,48.3z M5972.3,1480.8c0,6.7,0,12.8,6.7,19.5c0,6.7,0,12.8,6.7,19.5
				c25.6-19.5,38.9-32.3,38.9-51.7v-6.7l0,0c0-6.7,0-12.8-6.7-25.6c0-6.7,0-6.7-6.7-12.8C5979,1447.5,5972.3,1460.3,5972.3,1480.8
				L5972.3,1480.8L5972.3,1480.8z M3134-36.8c6.7,6.7,6.7,12.8,12.8,19.5c0,6.7,6.7,6.7,6.7,12.8c32.3-45.1,19.5-64.5,0-85.1
				c-6.7-6.7-6.7-12.8-12.8-12.8C3127.3-75.2,3127.3-56.3,3134-36.8L3134-36.8L3134-36.8z M6064.1,1357.3
				c-45.1,32.3-38.9,51.7-32.3,78.4c0,6.7,6.7,12.8,6.7,19.5c32.3-19.5,38.9-38.9,38.9-51.7l0,0l0,0c0-6.7-6.7-12.8-6.7-25.6
				C6070.2,1364,6070.2,1364,6064.1,1357.3z M3159.6-120.2c0,6.7,6.7,12.8,12.8,19.5c0,6.7,6.7,6.7,6.7,12.8
				c32.3-45.1,19.5-64.5,6.7-85.1c-6.7-6.7-6.7-12.8-12.8-12.8C3153.4-160.3,3153.4-141.4,3159.6-120.2L3159.6-120.2L3159.6-120.2z
				 M6115.3,1285c-45.1,32.3-32.3,51.7-25.6,78.4c0,6.7,6.7,12.8,6.7,19.5c25.6-25.6,38.9-38.9,32.3-57.9l0,0l0,0
				c0-6.7-6.7-12.8-6.7-25.6C6115.3,1297.8,6115.3,1291.7,6115.3,1285z M3185.7-199.2c0,6.7,6.7,12.8,12.8,19.5
				c0,6.7,6.7,6.7,6.7,12.8c32.3-38.9,25.6-57.9,12.8-85.1c-6.7-6.7-6.7-12.8-6.7-12.8C3185.7-237.6,3185.7-218.7,3185.7-199.2
				L3185.7-199.2L3185.7-199.2z M6155.3,1214.4c-38.9,38.9-32.3,57.9-19.5,78.4c0,6.7,6.7,12.8,6.7,19.5
				c25.6-25.6,32.3-45.1,32.3-57.9l0,0l0,0c0-6.7-6.7-12.8-6.7-19.5C6162,1220.5,6162,1220.5,6155.3,1214.4z M3225.8-284.3
				c0,6.7,6.7,12.8,12.8,19.5c0,6.7,6.7,6.7,6.7,12.8c38.9-38.9,25.6-57.9,12.8-78.4c0-6.7-6.7-12.8-6.7-19.5
				C3225.8-316.6,3219.1-303.8,3225.8-284.3L3225.8-284.3L3225.8-284.3z M6174.8,1199.9c0,6.7,6.7,12.8,6.7,19.5
				c0,6.7,6.7,12.8,6.7,19.5c25.6-25.6,32.3-45.1,25.6-57.9l-6.7-6.7l0,0c0-6.7-6.7-12.8-12.8-19.5c0-6.7-6.7-6.7-6.7-12.8
				C6168.1,1167.6,6168.1,1180.4,6174.8,1199.9L6174.8,1199.9L6174.8,1199.9z M3258-361.7c0,6.7,6.7,12.8,12.8,19.5
				c0,6.7,6.7,6.7,6.7,12.8c25.6-25.6,32.3-45.1,25.6-64.5l0,0l0,0c0-6.7-6.7-12.8-6.7-19.5s-6.7-12.8-6.7-12.8
				C3264.1-393.9,3258-381.1,3258-361.7L3258-361.7L3258-361.7z M6232.6,1056.9c-38.9,38.9-25.6,57.9-12.8,85.1
				c0,6.7,6.7,12.8,6.7,12.8c25.6-25.6,25.6-45.1,25.6-57.9l-6.7-6.7l0,0c0-6.7-6.7-12.8-12.8-19.5
				C6239.3,1069.7,6239.3,1063.1,6232.6,1056.9z M3303.1-434c0,6.7,6.7,12.8,6.7,19.5c0,6.7,6.7,6.7,6.7,12.8
				c32.3-25.6,32.3-45.1,32.3-57.9l0,0l0,0c0-6.7-6.7-12.8-6.7-19.5c0-6.7-6.7-12.8-6.7-19.5c-25.6,25.6-32.3,38.9-32.3,57.9V-434
				L3303.1-434z M6264.9,979.6c-32.3,45.1-25.6,57.9-6.7,85.1c0,6.7,6.7,12.8,6.7,12.8c19.5-25.6,25.6-45.1,25.6-57.9l0,0l0,0
				c0-6.7-6.7-12.8-12.8-19.5C6271.6,985.7,6271.6,985.7,6264.9,979.6z M3349.3-511.3c0,6.7,6.7,12.8,6.7,19.5
				c0,6.7,6.7,6.7,6.7,12.8c45.1-32.3,32.3-51.7,25.6-78.4c0-6.7-6.7-12.8-6.7-19.5C3355.9-544.7,3349.3-530.8,3349.3-511.3
				L3349.3-511.3L3349.3-511.3z M6298.3,900.6c-32.3,45.1-19.5,57.9-6.7,85.1c6.7,6.7,6.7,12.8,12.8,19.5
				c19.5-32.3,25.6-45.1,19.5-64.5l0,0l0,0c0-6.7-6.7-12.8-12.8-19.5C6298.3,907.3,6298.3,907.3,6298.3,900.6z M3394.3-583.6
				c0,6.7,6.7,12.8,6.7,25.6c0,6.7,6.7,12.8,6.7,12.8c45.1-32.3,38.9-51.7,32.3-78.4c0-6.7-6.7-12.8-6.7-19.5
				C3407.1-615.9,3394.3-602.6,3394.3-583.6L3394.3-583.6L3394.3-583.6z M6317.8,817.2c-32.3,45.1-19.5,64.5,0,85.1
				c6.7,6.7,6.7,12.8,12.8,12.8c19.5-32.3,19.5-51.7,12.8-64.5l0,0l0,0c-6.7-6.7-6.7-12.8-12.8-19.5
				C6324.4,823.3,6324.4,823.3,6317.8,817.2z M3452.7-648.2c0,6.7,0,12.8,6.7,25.6c0,6.7,0,6.7,6.7,12.8
				c45.1-32.3,38.9-51.7,32.3-72.3c0-6.7,0-12.8-6.7-19.5C3460-687.7,3452.7-667.1,3452.7-648.2L3452.7-648.2L3452.7-648.2z
				 M6337.2,732c-25.6,45.1-12.8,64.5,6.7,85.1c6.7,6.7,6.7,6.7,12.8,12.8c19.5-32.3,19.5-51.7,12.8-64.5l0,0l0,0
				c-6.7-6.7-12.8-12.8-12.8-19.5C6343.9,744.8,6343.9,738.2,6337.2,732z M3511.7-713.8c0,6.7,0,12.8,6.7,25.6c0,6.7,0,6.7,0,12.8
				c45.1-25.6,45.1-45.1,38.9-72.3c0-6.7,0-12.8,0-19.5C3518.4-752.2,3511.7-733.3,3511.7-713.8L3511.7-713.8L3511.7-713.8z
				 M6350,653c-25.6,51.7-12.8,64.5,6.7,85.1c6.7,6.7,6.7,6.7,12.8,12.8c12.8-32.3,12.8-51.7,12.8-64.5h-6.7v-6.7
				c-6.7-6.7-12.8-12.8-12.8-19.5C6362.8,659.7,6356.7,653,6350,653z M3570.1-778.4c0,6.7,0,12.8,0,25.6c0,6.7,0,6.7,0,12.8
				c51.7-25.6,45.1-45.1,38.9-72.3c0-6.7,0-12.8,0-19.5C3582.9-811.7,3570.1-797.3,3570.1-778.4L3570.1-778.4L3570.1-778.4z
				 M6362.8,569.6c-25.6,51.7-6.7,64.5,12.8,85.1c6.7,6.7,6.7,6.7,12.8,12.8c12.8-32.3,12.8-51.7,6.7-64.5l0,0l0,0
				c-6.7-6.7-12.8-12.8-19.5-19.5C6369.5,569.6,6369.5,569.6,6362.8,569.6z M3635.8-837.3c0,6.7,0,12.8,0,25.6c0,6.7,0,6.7,0,12.8
				c38.9-19.5,45.1-32.3,45.1-51.7l0,0l0,0c0-6.7,0-12.8,0-19.5s0-12.8,0-19.5C3648.6-869.6,3635.8-856.8,3635.8-837.3L3635.8-837.3
				L3635.8-837.3z M6369.5,477.8c-19.5,51.7,0,64.5,12.8,85.1c6.7,6.7,12.8,6.7,12.8,12.8c12.8-32.3,12.8-51.7,0-64.5h-6.7l0,0
				c-6.7-6.7-12.8-12.8-19.5-12.8C6376.2,484.5,6376.2,484.5,6369.5,477.8z M3700.3-895.7c0,6.7,0,12.8,0,25.6c0,6.7,0,6.7,0,12.8
				c51.7-19.5,51.7-38.9,45.1-64.5c0-6.7,0-12.8,0-19.5C3719.2-928,3706.4-914.7,3700.3-895.7L3700.3-895.7L3700.3-895.7z
				 M6369.5,392.7c-19.5,51.7,0,64.5,19.5,78.4c6.7,6.7,6.7,6.7,12.8,12.8c12.8-32.3,6.7-51.7,0-64.5h-6.7v-6.7
				c-6.7-6.7-12.8-6.7-19.5-12.8C6382.3,400.5,6376.2,400.5,6369.5,392.7z M3765.9-948.6c0,6.7,0,12.8,0,25.6c0,6.7,0,6.7,0,12.8
				c51.7-12.8,51.7-38.9,51.7-64.5c0-6.7,0-12.8,0-19.5C3791.5-980.9,3772.1-967.5,3765.9-948.6L3765.9-948.6L3765.9-948.6z
				 M6369.5,308.7c-12.8,51.7,6.7,64.5,25.6,78.4c6.7,0,6.7,6.7,12.8,12.8c6.7-32.3,6.7-51.7,0-64.5h-6.7v-6.7
				c-6.7-6.7-12.8-6.7-19.5-12.8C6376.2,315.4,6369.5,315.4,6369.5,308.7z M3836.6-993.6c0,6.7,0,12.8,0,25.6c0,6.7,0,6.7,0,12.8
				c51.7-12.8,51.7-32.3,57.9-57.9c0-6.7,0-12.8,0-19.5c-32.3,6.7-45.1,19.5-51.7,32.3L3836.6-993.6L3836.6-993.6z M6376.2,289.8
				c6.7,6.7,12.8,6.7,12.8,12.8c6.7,0,12.8,6.7,12.8,6.7c6.7-38.9,0-51.7-6.7-64.5l0,0l0,0c-6.7-6.7-19.5-12.8-32.3-19.5
				C6350,262.5,6362.8,283.1,6376.2,289.8L6376.2,289.8L6376.2,289.8z M3915.6-1038.7c0,6.7,0,12.8-6.7,25.6c0,6.7,0,6.7,0,12.8
				c51.7-12.8,57.9-32.3,57.9-57.9c0-6.7,0-12.8,0-19.5C3935.1-1071,3921.7-1058.2,3915.6-1038.7L3915.6-1038.7L3915.6-1038.7z
				 M6362.8,204.7c12.8,6.7,19.5,12.8,32.3,19.5c6.7-38.9,0-51.7-12.8-64.5l0,0l0,0c-6.7-6.7-12.8-6.7-19.5-12.8
				c-6.7,0-6.7-6.7-12.8-6.7C6343.9,178.5,6350,191.3,6362.8,204.7L6362.8,204.7L6362.8,204.7z M3992.9-1084.9
				c0,6.7-6.7,12.8-6.7,25.6c0,6.7,0,12.8,0,12.8c51.7-6.7,57.9-32.3,64.5-51.7c0-6.7,0-12.8,6.7-19.5
				C4020.2-1111,4000.7-1098.2,3992.9-1084.9L3992.9-1084.9L3992.9-1084.9z M6337.2,55c-6.7,51.7,12.8,64.5,38.9,72.3
				c6.7,0,12.8,6.7,19.5,6.7c0-32.3,0-51.7-12.8-64.5h-6.7v-6.7c-6.7-6.7-12.8-6.7-19.5-12.8C6343.9,61.1,6337.2,61.1,6337.2,55z
				 M4071.4-1117.1c-6.7,6.7-6.7,12.8-6.7,25.6c0,6.7,0,6.7,0,12.8c57.9-6.7,57.9-25.6,64.5-51.7c0-6.7,0-12.8,6.7-19.5
				C4097.5-1149.4,4078-1136.6,4071.4-1117.1L4071.4-1117.1L4071.4-1117.1z M6311.6-30.1c-6.7,57.9,19.5,64.5,38.9,72.3
				c6.7,0,12.8,6.7,12.8,6.7c0-38.9-6.7-51.7-19.5-64.5h-6.7l0,0c-6.7-6.7-12.8-6.7-19.5-6.7C6324.4-24,6317.8-24,6311.6-30.1z
				 M4150.4-1149.4c-6.7,6.7-6.7,12.8-6.7,25.6c0,6.7,0,6.7,0,12.8c51.7,0,57.9-25.6,64.5-45.1c0-6.7,0-12.8,6.7-19.5
				C4175.9-1175.6,4163.2-1168.9,4150.4-1149.4L4150.4-1149.4L4150.4-1149.4z M6292.2-107.4c0,51.7,19.5,64.5,45.1,72.3
				c6.7,0,12.8,6.7,19.5,6.7c0-32.3-6.7-51.7-19.5-57.9h-6.7l0,0c-6.7-6.7-12.8-6.7-19.5-6.7
				C6298.3-107.4,6292.2-107.4,6292.2-107.4z M4233.8-1181.7c-6.7,6.7-6.7,12.8-6.7,19.5s0,6.7-6.7,12.8c38.9,0,51.7-12.8,64.5-25.6
				l0,0l0,0c0-6.7,6.7-12.8,6.7-19.5s6.7-12.8,6.7-19.5C4260-1201.2,4246.6-1194.5,4233.8-1181.7L4233.8-1181.7L4233.8-1181.7z
				 M6258.8-186.4c0,51.7,25.6,57.9,45.1,64.5c6.7,0,12.8,6.7,19.5,6.7c0-38.9-12.8-51.7-25.6-57.9l0,0l0,0
				c-6.7-6.7-12.8-6.7-25.6-6.7C6271.6-186.4,6264.9-186.4,6258.8-186.4z M4318.9-1207.8c-6.7,6.7-6.7,12.8-6.7,19.5s0,6.7-6.7,12.8
				c38.9,0,57.9-6.7,64.5-25.6l0,0l0,0c0-6.7,6.7-12.8,6.7-19.5s6.7-12.8,6.7-19.5C4345.1-1228.4,4331.7-1221.7,4318.9-1207.8
				L4318.9-1207.8L4318.9-1207.8z M6226.5-269.9c6.7,38.9,19.5,51.7,32.3,57.9l0,0l0,0c6.7,0,12.8,0,19.5,6.7c6.7,0,12.8,0,19.5,6.7
				c-6.7-38.9-12.8-51.7-25.6-57.9l0,0l0,0c-6.7,0-12.8-6.7-25.6-6.7S6232.6-263.8,6226.5-269.9z M4404-1221.7
				c-6.7,6.7-6.7,12.8-12.8,19.5c0,6.7-6.7,6.7-6.7,12.8c51.7,6.7,64.5-12.8,72.3-38.9c0-6.7,6.7-12.8,6.7-12.8
				C4430.2-1247.3,4416.8-1241.2,4404-1221.7L4404-1221.7L4404-1221.7z M6187.6-342.2c6.7,51.7,32.3,57.9,51.7,64.5
				c6.7,0,12.8,0,19.5,6.7c-6.7-38.9-19.5-51.7-32.3-57.9h-6.7l0,0c-6.7,0-12.8,0-19.5-6.7C6200.4-342.2,6194.3-342.2,6187.6-342.2z
				 M4488-1241.2c-6.7,6.7-6.7,12.8-12.8,19.5c0,6.7-6.7,6.7-6.7,12.8c51.7,12.8,64.5-6.7,78.4-32.3c0-6.7,6.7-12.8,6.7-12.8
				C4520.3-1260.7,4500.8-1254,4488-1241.2L4488-1241.2L4488-1241.2z M6149.2-421.2c12.8,51.7,32.3,57.9,57.9,57.9
				c6.7,0,12.8,0,19.5,0c-6.7-32.3-19.5-51.7-32.3-57.9l0,0l0,0c-6.7,0-12.8,0-25.6-6.7C6155.3-421.2,6155.3-421.2,6149.2-421.2z
				 M4573.2-1247.3c-6.7,6.7-6.7,12.8-12.8,19.5c0,6.7-6.7,6.7-6.7,12.8c51.7,12.8,64.5-6.7,78.4-25.6c6.7-6.7,6.7-12.8,12.8-12.8
				C4605.4-1266.8,4592.6-1266.8,4573.2-1247.3L4573.2-1247.3L4573.2-1247.3z M6102.5-491.9c12.8,38.9,25.6,51.7,45.1,51.7l0,0l0,0
				c6.7,0,12.8,0,19.5,0s12.8,0,19.5,0c-6.7-32.3-19.5-45.1-32.3-51.7h-6.7v-6.7c-6.7,0-12.8,0-25.6,0
				C6109.1-491.9,6109.1-491.9,6102.5-491.9z M4663.3-1260.7c-6.7,6.7-12.8,12.8-12.8,19.5c0,6.7-6.7,6.7-6.7,12.8
				c51.7,12.8,64.5-6.7,78.4-25.6c6.7-6.7,6.7-6.7,12.8-12.8C4696.7-1273.5,4677.7-1266.8,4663.3-1260.7L4663.3-1260.7
				L4663.3-1260.7z M6057.4-564.2c12.8,51.7,38.9,51.7,64.5,51.7c6.7,0,12.8,0,19.5,0c-12.8-32.3-25.6-45.1-38.9-51.7h-6.7l0,0
				c-6.7,0-12.8,0-19.5,0C6064.1-564.2,6057.4-564.2,6057.4-564.2z M4748.4-1260.7c-6.7,6.7-6.7,12.8-12.8,19.5
				c0,6.7-6.7,6.7-6.7,12.8c51.7,19.5,64.5,0,78.4-19.5c6.7-6.7,6.7-12.8,12.8-12.8C4780.7-1273.5,4767.9-1273.5,4748.4-1260.7
				L4748.4-1260.7L4748.4-1260.7z M5997.9-628.7c12.8,38.9,32.3,45.1,45.1,51.7l0,0l0,0c6.7,0,12.8,0,19.5,0s12.8,0,19.5,0
				c-12.8-32.3-25.6-45.1-38.9-51.7h-6.7l0,0c-6.7,0-12.8,0-19.5,0C6010.1-628.7,6004.6-628.7,5997.9-628.7z M4833.5-1254
				c-6.7,6.7-12.8,12.8-12.8,19.5s-6.7,6.7-6.7,12.8c38.9,12.8,51.7,6.7,64.5,0l0,0l0,0c6.7-6.7,6.7-6.7,12.8-12.8
				c6.1-6.1,6.7-6.7,12.8-12.8C4872.5-1266.8,4853-1266.8,4833.5-1254L4833.5-1254L4833.5-1254z M5946.7-694.3
				c19.5,51.7,45.1,45.1,64.5,45.1c6.7,0,12.8,0,19.5,0c-12.8-32.3-32.3-45.1-45.1-45.1h-6.7l0,0c-6.7,0-12.8,0-19.5,0
				S5952.8-694.3,5946.7-694.3z M4923.6-1247.3c-6.7,6.7-12.8,12.8-12.8,19.5c0,6.7-6.7,6.7-6.7,12.8c51.7,25.6,64.5,6.7,78.4-12.8
				c6.7-6.7,6.7-6.7,12.8-12.8C4957.6-1260.7,4938.1-1260.7,4923.6-1247.3L4923.6-1247.3L4923.6-1247.3z M5888.3-758.9
				c25.6,51.7,45.1,45.1,72.3,45.1c6.7,0,12.8,0,19.5,0c-12.8-32.3-32.3-38.9-45.1-45.1h-6.7l0,0c-6.7,0-12.8,0-25.6,0
				C5895-758.9,5888.3-758.9,5888.3-758.9z M4983.2-1207.8c38.9,19.5,51.7,12.8,64.5,6.7l0,0l0,0c6.7-6.7,6.7-6.7,12.8-12.8
				c6.7-6.7,6.7-6.7,12.8-12.8c-32.3-12.8-51.7-19.5-64.5-12.8v6.7l0,0c-6.7,6.7-12.8,12.8-19.5,12.8
				C4989.8-1215.1,4983.2-1215.1,4983.2-1207.8z M5822.6-818.4c25.6,45.1,45.1,45.1,72.3,38.9c6.7,0,12.8,0,19.5,0
				c-19.5-32.3-32.3-38.9-45.1-45.1h-6.7l0,0c-6.7,0-12.8,0-25.6,6.7C5835.4-818.4,5829.3-818.4,5822.6-818.4z M5067.2-1194.5
				c32.3,19.5,51.7,19.5,72.3,6.7l0,0l0,0c6.7-6.7,6.7-6.7,12.8-12.8c6.7-6.7,6.7-6.7,12.8-12.8c-32.3-19.5-51.7-19.5-64.5-12.8l0,0
				l0,0c-6.7,6.7-12.8,6.7-19.5,12.8C5075-1201.2,5067.2-1194.5,5067.2-1194.5z M5758.1-869.6c19.5,32.3,38.9,38.9,57.9,38.9l0,0
				l0,0c6.7,0,12.8,0,19.5-6.7c6.7,0,12.8,0,19.5-6.7c-19.5-25.6-32.3-38.9-51.7-38.9h-6.7l0,0c-6.7,0-12.8,0-25.6,6.7
				C5764.8-869.6,5764.8-869.6,5758.1-869.6z M5152.3-1175.6c45.1,32.3,64.5,19.5,85.1,0c6.7-6.7,12.8-6.7,12.8-12.8
				c-32.3-19.5-45.1-19.5-64.5-19.5v6.7h-6.7c-6.7,6.7-12.8,6.7-19.5,12.8C5158.4-1181.7,5152.3-1181.7,5152.3-1175.6z
				 M5685.8-921.3c32.3,45.1,51.7,38.9,78.4,32.3c6.7,0,12.8-6.7,19.5-6.7c-19.5-25.6-38.9-38.9-51.7-38.9l0,0l0,0
				c-6.7,0-12.8,6.7-25.6,6.7C5699.1-921.3,5692.5-921.3,5685.8-921.3z M5230.7-1149.4c45.1,32.3,64.5,19.5,85.1,6.7
				c6.7-6.7,6.7-6.7,12.8-6.7c-32.3-19.5-45.1-25.6-57.9-19.5l0,0l0,0c-6.7,0-12.8,6.7-19.5,12.8
				C5237.4-1156.1,5237.4-1156.1,5230.7-1149.4z M5621.3-967.5c32.3,45.1,51.7,32.3,78.4,25.6c6.7,0,12.8-6.7,19.5-6.7
				c-25.6-25.6-38.9-38.9-57.9-32.3l0,0l0,0c-6.7,0-12.8,6.7-25.6,6.7C5627.9-974.2,5621.3-974.2,5621.3-967.5z M5314.7-1123.8
				c32.3,25.6,51.7,25.6,64.5,19.5l0,0l0,0c6.7,0,12.8-6.7,19.5-12.8c6.7,0,6.7-6.7,12.8-6.7c-25.6-19.5-45.1-25.6-57.9-25.6v6.7
				l0,0c-6.7,0-12.8,6.7-19.5,12.8C5320.8-1129.9,5314.7-1123.8,5314.7-1123.8z M5542.8-1013.1c25.6,32.3,45.1,32.3,64.5,32.3l0,0
				l0,0c6.7,0,12.8-6.7,19.5-6.7c6.7,0,12.8-6.7,19.5-6.7c-25.6-25.6-45.1-32.3-57.9-32.3l0,0l0,0c-6.7,0-12.8,6.7-19.5,6.7
				C5555.6-1019.2,5549.5-1013.1,5542.8-1013.1z M5393.2-1091.6c38.9,38.9,57.9,25.6,85.1,12.8c6.7-6.7,12.8-6.7,19.5-6.7
				c-25.6-25.6-45.1-25.6-57.9-25.6l-6.7,6.7l0,0c-6.7,0-12.8,6.7-19.5,12.8C5399.8-1098.2,5393.2-1091.6,5393.2-1091.6z
				 M5470.5-1058.2c38.9,38.9,57.9,32.3,78.4,19.5c6.7,0,12.8-6.7,12.8-6.7c-25.6-25.6-45.1-32.3-57.9-32.3l0,0l0,0
				c-6.7,0-12.8,6.7-25.6,12.8C5478.3-1058.2,5470.5-1058.2,5470.5-1058.2z"/>
			<path class="st2" d="M4735.6,2171.2c-976.3,0-1764.1-794.4-1764.1-1764.1c0-976.3,794.4-1764.1,1764.1-1764.1
				c976.3,0,1764.1,794.4,1764.1,1764.1C6506.4,1382.9,5711.9,2171.2,4735.6,2171.2z M4735.6-1338
				C3772.1-1338,2991-556.4,2991,406.6s781.6,1744.6,1744.6,1744.6s1744.6-781.6,1744.6-1744.6S5699.1-1338,4735.6-1338z"/>
			<path class="st2" d="M4735.6,1962.1c-859,0-1556.6-696.5-1556.6-1556.6s696.5-1556.6,1556.6-1556.6
				c860.1,0,1556.6,696.5,1556.6,1556.6S5594.6,1962.1,4735.6,1962.1z M4735.6-1129.9c-846.2,0-1536,689.8-1536,1536
				s689.8,1536,1536,1536s1536-689.8,1536-1536S5581.8-1129.9,4735.6-1129.9z"/>
			<path class="st2" d="M4735.6,2451.1c-91.8,0-175.2-45.1-260.4-85.1c-57.9-32.3-117.4-57.9-175.2-72.3
				c-45.1-12.8-104.6-12.8-143-12.8c-12.8,0-32.3,0-45.1,0s-32.3,0-45.1,0c-85.1,0-155.8-6.7-215.3-38.9
				c-78.4-38.9-136.9-110.7-194.7-181.9c-38.9-51.7-78.4-104.6-130.2-143c-45.1-38.9-110.7-64.5-169.1-91.8
				c-85.1-38.9-169.1-78.4-222-149.6c-51.7-72.3-72.3-162.4-91.8-247.6c-12.8-64.5-25.6-130.2-51.7-181.9
				c-25.6-51.7-64.5-104.6-110.7-155.8c-57.9-72.3-117.4-143-136.9-234.8c-19.5-85.1,0-175.2,25.6-260.4
				c12.8-64.5,32.3-130.2,32.3-194.7s-12.8-130.2-32.3-194.7c-19.5-85.1-45.1-175.2-25.6-260.4c19.5-85.1,78.4-162.4,136.9-234.8
				c38.9-51.7,85.1-97.9,110.7-155.8s38.9-124.1,51.7-181.9c19.5-91.8,38.9-181.9,91.8-247.6c51.7-72.3,143-110.7,222-149.6
				c57.9-25.6,117.4-57.9,169.1-91.8c45.1-38.9,91.8-91.8,130.2-143c57.9-72.3,110.7-149.6,194.7-181.9
				c57.9-32.3,130.2-38.9,215.3-38.9c12.8,0,32.3,0,45.1,0s32.3,0,45.1,0c45.1,0,97.9,0,143-12.8c57.9-12.8,117.4-38.9,175.2-72.3
				c85.1-38.9,169.1-85.1,260.4-85.1s175.2,45.1,260.4,85.1c57.9,32.3,117.4,57.9,175.2,72.3c45.1,12.8,104.6,12.8,143,12.8
				c12.8,0,32.3,0,45.1,0c12.8,0,32.3,0,45.1,0c85.1,0,155.8,6.7,215.3,38.9c78.4,38.9,136.9,110.7,194.7,181.9
				c38.9,51.7,78.4,104.6,130.2,143c45.1,38.9,110.7,64.5,169.1,91.8c85.1,38.9,169.1,78.4,222,149.6
				c51.7,72.3,72.3,162.4,91.8,247.6c12.8,64.5,25.6,130.2,51.7,181.9c25.6,51.7,64.5,104.6,110.7,155.8
				c57.9,72.3,117.4,143,136.9,234.8c19.5,85.1,0,175.2-25.6,260.4c-12.8,64.5-32.3,130.2-32.3,194.7s12.8,130.2,32.3,194.7
				c19.5,85.1,45.1,175.2,25.6,260.4c-19.5,85.1-78.4,162.4-136.9,234.8c-38.9,51.7-85.1,97.9-110.7,155.8
				c-25.6,57.9-38.9,124.1-51.7,181.9c-19.5,91.8-38.9,181.9-91.8,247.6c-51.7,72.3-143,110.7-222,149.6
				c-57.9,25.6-117.4,57.9-169.1,91.8c-45.1,38.9-91.8,91.8-130.2,143c-57.9,72.3-110.7,149.6-194.7,181.9
				c-57.9,32.3-130.2,38.9-215.3,38.9l0,0c-12.8,0-32.3,0-45.1,0c-12.8,0-32.3,0-45.1,0c-45.1,0-97.9,0-143,12.8
				c-57.9,12.8-117.4,38.9-175.2,72.3C4910.8,2411,4827.4,2451.1,4735.6,2451.1z M4163.2,2261.4c45.1,0,97.9,0,149.6,12.8
				c57.9,12.8,117.4,45.1,175.2,72.3c78.4,38.9,162.4,85.1,247.6,85.1s169.1-38.9,247.6-85.1c57.9-25.6,117.4-57.9,175.2-72.3
				c51.7-12.8,104.6-12.8,149.6-12.8c12.8,0,32.3,0,45.1,0c12.8,0,32.3,0,45.1,0l0,0c85.1,0,149.6-6.7,209.2-32.3
				c78.4-38.9,130.2-110.7,188-181.9c38.9-51.7,85.1-104.6,130.2-143c51.7-38.9,110.7-72.3,169.1-97.9
				c78.4-38.9,162.4-78.4,215.3-143c51.7-64.5,72.3-155.8,91.8-240.9c12.8-64.5,25.6-130.2,57.9-188
				c25.6-57.9,72.3-110.7,110.7-155.8c57.9-72.3,117.4-143,136.9-222c19.5-78.4,0-162.4-25.6-254.2
				c-12.8-64.5-32.3-130.2-32.3-194.7s19.5-130.2,32.3-194.7c19.5-91.8,38.9-175.2,25.6-254.2c-19.5-85.1-78.4-155.8-136.9-222
				c-38.9-51.7-85.1-104.6-110.7-155.8c-25.6-57.9-38.9-124.1-57.9-188c-19.5-85.1-38.9-175.2-91.8-240.9
				c-52.9-65.6-136.9-104.6-215.3-143c-57.9-25.6-124.1-57.9-169.1-97.9c-51.7-38.9-91.8-91.8-130.2-143
				c-51.7-72.3-110.7-143-188-181.9c-57.9-25.6-124.1-32.3-209.2-32.3c-12.8,0-32.3,0-45.1,0c-12.8,0-32.3,0-45.1,0
				c-45.1,0-97.9,0-149.6-12.8c-57.9-12.8-117.4-45.1-175.2-72.3c-78.4-38.9-162.4-85.1-247.6-85.1s-169.1,38.9-247.6,85.1
				c-57.9,25.6-117.4,57.9-175.2,72.3c-51.7,12.8-104.6,12.8-149.6,12.8c-12.8,0-32.3,0-45.1,0c-12.8,0-32.3,0-45.1,0
				c-85.1,0-149.6,6.7-209.2,32.3c-78.4,38.9-130.2,110.7-188,181.9c-38.9,51.7-85.1,104.6-130.2,143
				c-51.7,38.9-110.7,72.3-169.1,97.9c-78.4,38.9-162.4,78.4-215.3,143c-51.7,64.5-72.3,155.8-91.8,240.9
				c-12.8,64.5-25.6,130.2-57.9,188c-25.6,57.9-72.3,110.7-110.7,155.8c-57.9,72.3-117.4,143-136.9,222
				c-19.5,78.4,0,162.4,25.6,254.2c12.8,64.5,32.3,130.2,32.3,194.7s-19.5,130.2-32.3,194.7c-19.5,91.8-38.9,175.2-25.6,254.2
				c19.5,85.1,78.4,155.8,136.9,222c38.9,51.7,85.1,104.6,110.7,155.8c25.6,57.9,38.9,124.1,57.9,188
				c19.5,85.1,38.9,175.2,91.8,240.9c52.8,65.6,135.2,104.6,214.2,143c57.9,25.6,124.1,57.9,169.1,97.9
				c51.7,38.9,91.8,91.8,130.2,143c51.7,72.3,110.7,143,188,181.9c57.9,25.6,124.1,32.3,209.2,32.3c12.8,0,32.3,0,45.1,0
				S4143.7,2261.4,4163.2,2261.4z"/>
			<polyline class="st2" points="4938.1,-1038.7 4938.1,-1038.7 4938.1,-1038.7 4938.1,-1038.7 4938.1,-1038.7 			"/>
			<path class="st2" d="M4735.6,1864.1c-800.5,0-1458.7-651.4-1458.7-1458.7c0-800.5,651.4-1458.7,1458.7-1458.7
				c800.5,0,1458.7,651.4,1458.7,1458.7C6194.3,1207.7,5542.8,1864.1,4735.6,1864.1z M4735.6-1025.9
				c-787.7,0-1432.5,644.8-1432.5,1432.5s644.8,1432.5,1432.5,1432.5s1432.5-644.8,1432.5-1432.5S5530-1025.9,4735.6-1025.9z"/>
		</g>
		<path class="st3" d="M4544.8,850.5L4544.8,850.5L4544.8,850.5L4544.8,850.5z M4526.4,728.1l144.6-89v12.8L4530.3,737L4526.4,728.1
			z M4663.3,574.6l8.9,12.8l-157.4,94l-3.9-8.9l-3.9-8.9L4663.3,574.6z M4591,408.3L4591,408.3L4591,408.3l3.9-3.9v-3.9h-3.9v-3.9
			h3.9v-3.9l-12.8-3.9c0,0-8.9-25.6,20.6-63.4l-3.9-33.4l-51.7,29.5l0,0l-3.9-16.7l131.3-85.1l0,0v20.6l-63.4,38.9v38.9
			c0,0,20.6-8.9,25.6,16.7v3.9l-8.9,8.9v3.9h3.9l3.9,8.9h3.9v8.9v3.9l3.9,3.9v183l-8.9,8.9v3.9l-55.6,33.4l3.9-190.8h3.9L4591,408.3
			L4591,408.3z M4646.6,97.3L4646.6,97.3l3.9,3.9L4501.9,203l-3.9-8.9L4646.6,97.3z M4978.2,284.2L4978.2,284.2l12.8,8.9v-3.9
			c16.7,8.9,33.4,38.9,38.9,59.5h-3.9v3.9l0,0V386h3.9v183h-3.9v12.8l-81.2-25.6v-16.7l-3.9-8.9l-3.9-179.1l8.9-3.9l-3.9-3.9
			l3.9-8.9v-3.9l12.8-8.9l-16.7-3.9C4944.8,310.4,4948.1,280.3,4978.2,284.2z M4672.2,616.9l-153.5,94l-3.9-12.8l157.4-97.9
			L4672.2,616.9L4672.2,616.9z M4735.6,539.6v-8.9l-3.9-186.9h3.9v-7.8l3.9-3.9v-3.9l3.9-3.9v-3.9h-12.8c0,0,3.9-42.3,46.2-46.2v3.9
			h16.7v-3.9c33.4,3.9,42.3,20.6,46.2,42.3h-12.8v3.9l3.9,8.9v8.9l3.9,3.9v8.9h3.9v3.9v183l0,0v12.8l-101.8,8.9v-8.9L4735.6,539.6z
			 M4672.2,152.9v8.9l-131.3,89v-3.9L4672.2,152.9z M4654.4,110.1v8.9l-3.9,3.9v16.7l-8.9,3.9v-16.7l-12.8,8.9v16.7l-8.9,3.9v-12.8
			l-8.9,3.9v12.8l-8.9,8.9l-3.9-12.8l-12.8,8.9V178l-8.9,3.9l-3.9-12.8l-8.9,8.9v12.8l-8.9,8.9v-12.8l-12.8,8.9v12.8l-8.9,3.9
			l-3.9-12.8l-8.9,8.9v12.8l-8.9,3.9v-12.8l-8.9,3.9l-3.9-8.9L4654.4,110.1L4654.4,110.1z M4922.5,526.8L4922.5,526.8l-3.9,16.7
			h-8.9v-12.8l-3.9-3.9l-3.9-186.9l20.6,3.9L4922.5,526.8L4922.5,526.8z M4552.6,284.2l-12.8-29.5v3.9l131.3-89l3.9,3.9v25.6
			l-3.9,3.9L4552.6,284.2z M5387,1131.5L4859.7,974l-72.3,38.9l-101.8-16.7V868.9l38.9,12.8v3.9l72.3,12.8l42.3-20.6l0,0v3.9
			l16.7-8.9l12.8-3.9l25.6,8.9l3.9-3.9l179.1,59.5l3.9,8.9l25.6,3.9l3.9-3.9l166.3,46.2l3.9-3.9l20.6,8.9l16.7-12.8l-12.8-3.9v-8.9
			l-8.9-3.9c0,0,0,0-3.9-3.9c-3.9-3.9-8.9-3.9-8.9-8.9c0-5,0-8.9,0-8.9c0-3.9,3.9-3.9,8.9-8.9c5-5,8.9-12.8,8.9-16.7
			c0-3.9,0-12.8-3.9-12.8c0,0,0-3.9-3.9-3.9c0,0-3.9,0-3.9-3.9v-8.9c0,0,3.9-3.9,3.9-8.9c0-5,0-20.6-3.9-25.6c0,0-3.9,0-8.9,0
			c-3.9,0-3.9,3.9-3.9,16.7c0,12.8,0,8.9,3.9,16.7c0,0,0,8.9,0,12.8c-3.9,3.9,0,3.9-3.9,3.9c0,0-8.9,3.9-8.9,8.9c0,0,0,16.7,0,20.6
			c3.9,3.9,3.9,3.9,8.9,8.9c3.9,3.9,3.9,0,3.9,8.9c0,12.8,0,8.9-3.9,8.9c-3.9,3.9,0,0-8.9,3.9L5119.5,924v-8.9l-29.5-8.9l-3.9,3.9
			l-157.4-51.7l0,0v-55.6l246.4,72.3l25.6-12.8l-272-81.2v-19.5l183,55.6v-8.9l-183-59.5v-72.3l183,59.5v-16.7l-183-59.5v-20.6
			l183,59.5V682l-183-59.5v-12.8l186.9,59.5l8.9-20.6l-195.8-63.4l3.9-16.7l203.6,68.4l16.7,46.2l8.9-8.9l-20.6-55.6l-59.5-20.6
			v-12.8l-3.9-3.9V400.5l3.9-3.9l-3.9-3.9v-5l3.9-3.9l-3.9-3.9l3.9-3.9l8.9-3.9l-25.6-12.8c0-3.9,0-16.7-3.9-29.5
			c-3.9-16.7-20.6-46.2-51.7-63.4l3.9-12.8l-25.6-8.9v12.8c-29.5-8.9-46.2,8.9-55.6,51.7l-16.7-3.9l0,0h-6.7l-3.9-105.7l157.4,68.4
			l25.6,89l8.9-8.9l-25.6-110.7v-3.9l3.9-16.7l8.9-8.9l-8.9-3.9l8.9-12.8l12.8,3.9l3.9-8.9l-20.6-8.9l-20.6,20.6l-16.7-3.9
			l12.8-12.8l8.9,3.9l8.9-8.9l-16.7-8.9l-25.6,16.7l-12.8-3.9l12.8-12.8l12.8,3.9l8.9-3.9l-16.7-8.9l-25.6,20.6l-16.7-3.9l16.7-12.8
			l3.9-8.9l3.9-3.9l-16.7-8.9l-25.6,16.7l-16.7-3.9l16.7-12.8l8.9,3.9l8.9-8.9l-20.6-8.9l-25.6,16.7l-12.8-3.9l12.8-12.8l8.9,3.9
			l8.9-3.9l-20.6-8.9l-25.6,16.7l-12.8-8.9l12.8-12.8l8.9,3.9l8.9-8.9l-25.6-12.8v-8.9l190.8,81.2l25.6,127.4l3.9-12.8l-20.6-127.4
			l-199.7-81.2v-3.9l203.6,81.2l20.6,127.4h3.9l-20.6-131.3l-29.5-12.8l-8.9-46.2l-195.8-76.2l-3.9-12.8l131.3,51.7l-12.8-12.8
			L4875.2-8.4l-3.9-20.6l3.9,8.9l114.6,46.2l-8.9-12.8L4870.2-29l-3.9-12.8l101.8,42.3l3.9-16.7l-97.9-42.3l-3.9-8.9l94,33.4
			l-8.9-16.7l-89-38.9l-3.9-12.8l85.1,33.4l-8.9-16.7l-81.2-33.4l-8.9-38.9l72.3,25.6l-8.9-16.7l-68.4-25.6l-3.9-8.9l63.4,20.6
			l-8.9-12.8l-55.6-20.6l0,0l-3.9-12.8l38.9,12.8l-3.9-8.9l-25.6-8.9v-16.7l8.9-8.9l-3.9-16.7c0,0-16.7-3.9-20.6-20.6
			c0,0,3.9-16.7,0-20.6c-3.9-8.9-8.9-8.9-8.9-16.7l0,0c8.9-3.9,16.7-12.8,16.7-25.6c0-12.8-8.9-20.6-20.6-25.6
			c3.9,0,8.9-3.9,8.9-8.9s-3.9-8.9-8.9-8.9c3.9,0,3.9-3.9,3.9-3.9c0-3.9-3.9-3.9-3.9-3.9v-114.6l118.5,8.9c0,0-20.6-12.8-20.6-16.7
			c0-3.9-8.9-8.9,16.7-8.9l0,0c0,0-16.7-3.9-16.7-12.8c0-3.9,0-3.9,16.7-12.8l-124.1-12.8v-81.8c3.9,0,8.9-3.9,8.9-8.9l42.3,8.9l0,0
			l-42.3-8.9c0-3.9-3.9-8.9-8.9-8.9l0,0l12.8-38.9v-3.9l-12.8,33.4V-755h-3.9v89c-3.9,0-3.9,3.9-8.9,3.9l-46.2-8.9l0,0l46.2,8.9v3.9
			c0,3.9,3.9,8.9,8.9,8.9l-8.9,20.6l0,0l8.9-20.6v76.2h-16.7l-8.9,8.9c0,0-12.8,0-12.8,12.8l-12.8-3.9v8.9l8.9,16.7l-12.8,3.9
			l8.9,8.9h8.9v3.9l8.9-3.9c0,0,3.9,12.8,12.8,12.8l12.8,12.8h12.8v115.7c-3.9,0-8.9,3.9-8.9,8.9s3.9,3.9,3.9,3.9
			c-3.9,0-8.9,3.9-8.9,8.9s3.9,8.9,3.9,8.9c-12.8,3.9-20.6,12.8-20.6,25.6c0,12.8,8.9,20.6,16.7,25.6l0,0v12.8
			c0,0-16.7,8.9-3.9,20.6c0,0-3.9,20.6-25.6,25.6l3.9,16.7l3.9,3.9v12.8c-12.8,8.9-33.4,20.6-46.2,38.9
			c-12.8,16.7-29.5,33.4-33.4,55.6C4693.3-86.3,4658.3-9,4651-1.2c-3.9,3.9-42.3,63.4-46.2,72.3c-8.9,8.9-76.2,55.6-76.2,55.6
			l8.9,33.4l3.9-3.9l-59.5,33.4l42.3,127.4h8.9l3.9,12.8l8.9,8.9v-3.9V381l-23.4,17.8l12.8,33.4v179.1l-12.8,12.8v3.9l-46.2,29.5
			l33.4,94V781l-3.9,3.9l3.9,8.9l3.9,3.9l-3.9,16.7l-3.9,3.9v3.9l3.9,3.9l-8.9,29.5l-51.7,25.6l25.6,55.6v16.7l-114.6,59.5l0,0l0,0
			c0,0,0-8.9,0-12.8s3.9-3.9,8.9-8.9c0,0,3.9-12.8,3.9-16.7s-3.9-12.8-3.9-16.7c0,0-3.9-3.9-8.9-8.9v-3.9l3.9-3.9c0,0,0-3.9,0-8.9
			c0-3.9-3.9-16.7-3.9-16.7c0-3.9-3.9-3.9-3.9-3.9s-3.9,0-3.9,3.9c0,3.9-3.9,20.6,0,29.5v3.9c0,0-3.9,3.9-8.9,3.9
			c-3.9,3.9-8.9,8.9-8.9,12.8s0,8.9,0,12.8s3.9,8.9,8.9,12.8c3.9,3.9,0,8.9,3.9,12.8c3.9,3.9,0,3.9-8.9,8.9c-3.9,3.9,0,3.9-3.9,8.9
			l0,0l-12.8,8.9v8.9h3.9v8.9l-3.9,3.9l3.9,3.9v85.1l0,0l-3.9,12.8l-124.1-51.7v294.3L4083,1550.4h762.2v-455.1l446.2,114.6
			l68.4-51.7l-25.6-12.8L5387,1131.5"/>
	</g>
</g>
</svg>
