<?xml version="1.0" encoding="utf-8"?>
<!-- Generator: Adobe Illustrator 19.0.0, SVG Export Plug-In . SVG Version: 6.00 Build 0)  -->
<svg version="1.1" id="Layer_1" xmlns="http://www.w3.org/2000/svg" xmlns:xlink="http://www.w3.org/1999/xlink" x="0px" y="0px"
	 viewBox="-2069 236.4 5841 319" style="enable-background:new -2069 236.4 5841 319;" xml:space="preserve">
<style type="text/css">
	.st0{fill:#1F4A83;}
	.st1{fill:none;stroke:#FFFFFF;stroke-miterlimit:10;}
	.st2{fill:#FFFFFF;}
	.st3{fill:#003B71;}
</style>
<rect x="-2069" y="236.4" class="st0" width="5841" height="317"/>
<g>
	<g>
		<line class="st1" x1="-2069" y1="396" x2="657.1" y2="396"/>
		<line class="st1" x1="1050.9" y1="396" x2="3772" y2="396"/>
	</g>
	<g>
		<g>
			<path class="st1" d="M795,515.1c-1-0.5-2-1-3-2.5c-1.5,0-3.5-0.5-6.1-3c-1.5,0-3.5-0.5-6.1-3.5c-1.5,0-3.5-1-5.6-4
				c-1.5,0-3.5-1-5.6-4c-1.5,0-3-1.5-5-4.5c-1.5-0.5-3-1.5-5-4.5c-1.5-0.5-3-1.5-4.5-5c-1.5-0.5-3-1.5-4.5-5c-1.5-0.5-3-2-4-5.6
				c-1.5-0.5-3-2-4-5.6c-1.5-0.5-2.5-2-3.5-6.1c-1.5-1-2.5-2.5-3-6.1c-1.5-1-2.5-2.5-3-6.1c-1.5-1-2.5-2.5-2.5-6.6
				c-1.5-1-2-2.5-2-6.6c-1-1-2-3-2-6.6c-1-1-2-3-1.5-6.6c-1-1-1.5-3-1-6.6c-1-1-1.5-3-1-7.1c-1-1-1.5-3-0.5-6.6c-1-1.5-1.5-3,0-7.1
				c-1-1.5-1-3.5,0-7.1c-0.5-1.5-1-3.5,0.5-6.6c-0.5-1.5-0.5-3.5,1-7.1c-0.5-1.5-0.5-3.5,1.5-6.6c-0.5-1.5-0.5-3.5,1.5-6.6
				c-0.5-1.5,0-3.5,2-6.6c-0.5-1.5,0-3.5,2.5-6.6c-0.5-1.5,0-3.5,2.5-6.1c0-1.5,0.5-3.5,3-6.1c0-1.5,0.5-3.5,3.5-6.1
				c0-1.5,0.5-3.5,3.5-6.1c0-1.5,1-3.5,4-5.6c0-1.5,1-3,4-5.6c0-1.5,1.5-3,4.5-5c0.5-1.5,1.5-3,4.5-5c0.5-1.5,1.5-3,5-4.5
				c0.5-1.5,2-3,5-4.5c0.5-1.5,2-3,5.6-4c0.5-1.5,2-2.5,5.6-4c0.5-1.5,2-2.5,6.1-3.5c0.5-1.5,2.5-2.5,6.1-3c1-1.5,2.5-2.5,6.1-3
				c1-1.5,2.5-2,6.6-2.5c1-1,2.5-2,6.1-2c1-1.5,3-2,6.6-2c1-1,3-2,6.6-1.5c1-1,3-1.5,6.6-1c1-1,3-1.5,6.6-1c1.5-1,3-1.5,7.1-0.5
				c1.5-1,3-1,6.6,0c1.5-1,3.5-1,7.1,0c1.5-0.5,3.5-1,6.6,0.5c1.5-1,3.5-0.5,7.1,1c1.5-0.5,3.5-0.5,6.6,1.5c1.5-0.5,3.5-0.5,6.6,1.5
				c1.5-0.5,3.5,0,6.6,2c1.5-0.5,3.5,0,6.1,2.5c1.5-0.5,3.5,0,6.1,2.5c1.5-0.5,3.5,0.5,6.6,3c1.5,0,3.5,0.5,6.1,3.5
				c1.5,0,3.5,0.5,6.1,3.5c1.5,0,3.5,1,5.6,4c1.5,0,3.5,1,5.6,4c1.5,0,3,1.5,5,4.5c1.5,0.5,3,1.5,5,4.5c1.5,0.5,3,1.5,4.5,5
				c1.5,0.5,3,1.5,4.5,5c1.5,0.5,3,2,4,5.6c1.5,0.5,3,2,4,5.6c1.5,0.5,2.5,2,3.5,6.1c1.5,1,2.5,2.5,3,6.1c1.5,1,2.5,2.5,3,6.1
				c1.5,1,2.5,2.5,2.5,6.6c1.5,1,2,2.5,2,6.6c1,1,2,3,2,6.6c1,1,2,3,1.5,6.6c1,1,1.5,3,1.5,6.6c1,1,1.5,3,1,6.6c1,1.5,1.5,3,0.5,6.6
				c1,1.5,1,3,0,6.6c1,1.5,1,3.5,0,7.1c1,1.5,1,3.5-0.5,7.1c0.5,1.5,0.5,3.5-1,6.6c0.5,1.5,0.5,3.5-1,7.1c0.5,1.5,0.5,3.5-1.5,6.6
				c0.5,1.5,0,3.5-2,6.6c0.5,1.5,0,3.5-2.5,6.6c0,1.5-0.5,3.5-2.5,6.1c0.5,1.5-0.5,3.5-3,6.1c0,1.5-0.5,3.5-3,6.1
				c0,1.5-0.5,3.5-3.5,6.1c0,1.5-1,3.5-4,5.6c0,1.5-1,3.5-4,5.6c0,1.5-1.5,3-4.5,5c-0.5,1.5-1.5,3-4.5,5c-0.5,1.5-1.5,3-5,5
				c-0.5,1.5-2,3-5,4c-0.5,1.5-2,3-5.6,4c-0.5,1.5-2,2.5-5.6,4c-0.5,1.5-2,2.5-6.1,3.5c-0.5,1.5-2.5,2.5-6.1,3c-1,1.5-2.5,2.5-6.1,3
				c-1,1.5-2.5,2.5-6.6,2.5c-1,1-2.5,2-6.1,2c-1,1.5-3,2-6.6,2c-1,1-3,1.5-6.6,1.5c-1,1-3,1.5-6.6,1c-1,1-3,1.5-6.6,1
				c-1,1-3,1.5-6.6,0.5c-1.5,1-3,1.5-7.1,0c-1.5,1-3.5,1-7.1,0c-1.5,0.5-3.5,1-6.6-0.5c-1.5,0.5-3.5,0.5-7.1-1
				c-1.5,0.5-3.5,0.5-6.6-1.5c-1.5,0.5-3.5,0.5-6.6-1.5c-1.5,0.5-3.5,0-6.6-2c-1.5,0.5-3.5,0-6.6-2.5c-1.5,0.5-3.5,0-6.1-2.5
				C797,515.6,796,515.6,795,515.1z M793.4,512.1c2,2,3.5,2,4.5,2l0.5-0.5l0,0c0.5,0,1-0.5,1.5-1c0.5,0,0.5-0.5,1-0.5
				c-3-3-4.5-2-6.6-1C794.5,511.6,793.9,512.1,793.4,512.1z M787.4,509c2,2,3.5,2.5,4.5,2l0,0l0,0c0.5,0,1-0.5,1.5-1
				c0.5,0,0.5-0.5,1-0.5c-2-2.5-3.5-2.5-5-2l0,0l0,0c-0.5,0-1,0.5-1,0.5C788.4,508.5,787.9,508.5,787.4,509z M781.8,505.5
				c2,2,3,2.5,4.5,2.5l0.5-0.5l0,0c0.5,0,1-0.5,1.5-0.5c0.5,0,0.5-0.5,1-0.5c-3-3-4.5-2.5-6.1-2C782.3,505,781.8,505,781.8,505.5z
				 M799.5,515.1c2.5,2,3.5,2,5,1.5l0,0l0,0c0.5,0,1-0.5,1.5-1c0.5,0,0.5-0.5,1-0.5c-2.5-2-3.5-2-5-1.5l0,0l0,0
				c-0.5,0-1,0.5-1.5,0.5C800.5,514.6,800,514.6,799.5,515.1z M776.3,501.5c2,2,3,2.5,4,2.5l0,0l0,0c0.5,0,1-0.5,2-0.5
				c0.5,0,0.5-0.5,1-0.5c-2.5-3.5-4.5-2.5-6.1-2C776.8,501.5,776.8,501.5,776.3,501.5z M805.6,517.6c2.5,1.5,3.5,2,5,1.5l0,0l0,0
				c0.5,0,1-0.5,1.5-1c0.5,0,0.5-0.5,1-0.5c-2.5-2-3.5-2-5-1.5l0,0l0,0c-0.5,0-1,0.5-1,1C806.6,517.1,806.1,517.1,805.6,517.6z
				 M770.7,497.4c1.5,2,3,3,4,3l0.5-0.5l0,0c0.5,0,1-0.5,1.5-0.5c0.5,0,0.5-0.5,1-0.5c-2.5-3.5-4-3-6.1-2.5
				C771.7,497.4,771.2,497.4,770.7,497.4z M812.1,519.6c2.5,1.5,3.5,1.5,5,1.5l0,0l0,0c0.5-0.5,1-0.5,1.5-1c0.5-0.5,0.5-0.5,1-0.5
				c-3.5-2.5-5-1-6.6,0C813.1,519.1,812.6,519.6,812.1,519.6z M765.7,492.9c1.5,2.5,3,3,4,3l0,0l0,0c0.5,0,1,0,2-0.5
				c0.5,0,0.5,0,1-0.5c-2.5-3.5-4-3-5.6-2.5C766.2,492.9,766.2,492.9,765.7,492.9z M818.7,521.7c2.5,1.5,4,1.5,5,1v-0.5l0,0
				c0.5-0.5,1-0.5,1.5-1c0.5-0.5,0.5-0.5,1-1c-2.5-1.5-4-1.5-5-1l0,0l0,0c-0.5,0.5-1,0.5-1,1C819.7,521.2,819.2,521.2,818.7,521.7z
				 M793.4,506.5c1,0.5,2,1.5,3,2.5c1.5-0.5,3.5,0,6.1,2.5c1.5-0.5,3.5,0,6.1,2.5c1.5-0.5,3.5,0,6.1,2c1.5-0.5,3.5-0.5,6.6,1.5
				c1.5-0.5,3.5-0.5,6.6,1.5c1.5-0.5,3-0.5,6.6,1c1.5-1,3-1,6.6,0.5c1.5-1,3-1,6.6,0.5c1-1,3-1,6.6,0c1-1,3-1.5,6.6-0.5
				c1-1,3-1.5,6.6-0.5c1-1,3-1.5,6.6-1c1-1,3-1.5,6.6-1c1-1,2.5-2,6.6-1.5c1-1,2.5-2,6.1-2c1-1.5,2.5-2.5,6.1-2.5
				c1-1.5,2.5-2.5,6.1-2.5c0.5-1.5,2-2.5,6.1-3c0.5-1.5,2-2.5,5.6-3c0.5-1.5,2-2.5,5.6-3.5c0.5-1.5,2-2.5,5.6-3.5c0.5-1.5,1.5-3,5-4
				c0.5-1.5,1.5-3,5-4c0-1.5,1.5-3,4.5-4.5c0-1.5,1-3,4.5-5c0-1.5,1-3,4-5c0-1.5,1-3,4-5c0-1.5,0.5-3.5,3.5-5.6
				c0-1.5,0.5-3.5,3.5-5.6c0-1.5,0.5-3.5,3-6.1c-0.5-1.5,0-3.5,2.5-6.1c-0.5-1.5,0-3.5,2.5-6.1c-0.5-1.5,0-3.5,2-6.1
				c-0.5-1.5-0.5-3.5,2-6.1c-0.5-1.5-0.5-3.5,1.5-6.6c-0.5-1.5-0.5-3,1-6.6c-0.5-1.5-1-3,1-6.6c-1-1.5-1-3,0.5-6.6c-1-1-1-3,0-6.6
				c-1-1-1.5-3-0.5-6.6c-1-1-1.5-3-0.5-6.6c-1-1-1.5-3-1-6.6c-1-1-2-3-1.5-6.6c-1-1-2-2.5-1.5-6.6c-1-1-2-2.5-2-6.1
				c-1.5-1-2-2.5-2.5-6.1c-1.5-1-2.5-2.5-2.5-6.1c-1.5-0.5-2.5-2-3-6.1c-1.5-0.5-2.5-2-3-5.6c-1.5-0.5-2.5-2-3.5-5.6
				c-1.5-0.5-2.5-2-3.5-5c-1.5-0.5-3-1.5-4-5c-1.5-0.5-3-1.5-4-5c-1.5,0-3-1.5-4.5-4.5c-1.5,0-3-1-4.5-4.5c-1.5,0-3-1-5-4
				c-1.5,0-3.5-1-5.6-4c-1.5,0-3-1-5.6-3.5c-1.5,0-3.5-0.5-5.6-3.5c-1.5,0-3.5-0.5-5.6-3c-1.5,0.5-3.5,0-6.1-2.5
				c-1.5,0.5-3.5,0-6.1-2.5c-1.5,0.5-3.5,0-6.1-2c-1.5,0.5-3.5,0.5-6.1-1.5c-1.5,0.5-3.5,0.5-6.6-1.5c-1.5,0.5-3.5,0.5-6.6-1
				c-1.5,1-3,1-6.6-0.5c-1.5,1-3,1-6.6-0.5c-1,1-3,1-6.6,0c-1,1-3,1.5-6.6,0.5c-1,1-3,1.5-6.6,0.5c-1,1-3,1.5-6.6,1
				c-1,1-3,2-6.6,1.5c-1,1-2.5,2-6.6,1.5c-1,1-2.5,2-6.1,2c-1,1.5-2.5,2-6.1,2.5c-1,1.5-2.5,2.5-6.1,2.5c-0.5,1.5-2,2.5-6.1,3
				c-0.5,1.5-2,2.5-5.6,3c-0.5,1.5-2,2.5-5.6,3.5c-0.5,1.5-2,3-5.6,3.5c-0.5,1.5-1.5,3-5,4c-0.5,1.5-1.5,3-5,4.5
				c-0.5,1.5-1.5,3-4.5,4.5c0,1.5-1,3-4.5,4.5c0,1.5-1,3-4,5c0,1.5-1,3.5-4,5.6c0,1.5-1,3-3.5,5.6c0,1.5-0.5,3.5-3.5,5.6
				c0,1.5-0.5,3.5-3,6.1c0.5,1.5,0,3.5-2.5,6.1c0.5,1.5,0,3.5-2.5,6.1c0.5,1.5,0.5,3.5-2,6.6c0.5,1.5,0.5,3.5-2,6.1
				c0.5,1.5,0.5,3.5-1.5,6.6c0.5,1.5,1,3.5-1,6.6c0.5,1.5,1,3-1,6.6c1,1.5,1,3-0.5,6.6c1,1,1,3,0,6.6c1,1,1.5,3,0.5,6.6
				c1,1,1.5,3,0.5,6.6c1,1,1.5,3,1,6.6c1,1,1.5,3,1,6.6c1,1,2,2.5,1.5,6.6c1.5,1,2,2.5,2,6.1c1.5,1,2,2.5,2.5,6.1
				c1.5,1,2.5,2.5,2.5,6.1c1.5,0.5,2.5,2,3,6.1c1.5,0.5,2.5,2,3,5.6c1.5,0.5,2.5,2,3.5,5.6c1.5,0.5,3,2,3.5,5.6c1.5,0.5,3,1.5,4,5
				c1.5,0.5,3,1.5,4.5,5c1.5,0.5,3,1.5,4.5,4.5c1.5,0,3,1,5,4.5c1.5,0,3,1,5,4c1.5,0,3,1,5.6,4c1.5,0,3.5,0.5,5.6,3.5
				c1.5,0,3,0.5,5.6,3.5C791.4,506,792.4,506,793.4,506.5z M760.6,488.3c1.5,2.5,2.5,3,4,3.5l0,0l0,0c0.5,0,1,0,2-0.5
				c0.5,0,1,0,1-0.5c-2-3.5-4-3.5-5.6-3C761.6,488.3,761.1,488.3,760.6,488.3z M832.3,521.7c-3.5-2-5-0.5-6.1,0.5
				c-0.5,0.5-0.5,0.5-1,1c2.5,1,4,1,5,0.5l0,0l0,0c0.5-0.5,1-1,1.5-1.5C832.3,522.2,832.3,522.2,832.3,521.7L832.3,521.7z
				 M756.1,483.3c1,2.5,2.5,3.5,3.5,3.5h0.5l0,0c0.5,0,1,0,2,0c0.5,0,0.5,0,1,0c-2-4-3.5-3.5-5.6-3
				C756.6,483.3,756.6,483.3,756.1,483.3z M833.8,522.2c-0.5,0.5-0.5,0.5-1,1c-0.5,0.5-0.5,0.5-1,1c2.5,1,4,1,5,0.5v-0.5l0,0
				c0.5-0.5,1-1,1-1.5c0-0.5,0.5-0.5,1-1C836.4,521.2,835.3,521.7,833.8,522.2L833.8,522.2L833.8,522.2z M751.5,478.2
				c1,2.5,2.5,3.5,3.5,3.5l0,0l0,0c0.5,0,1,0,2,0c0.5,0,0.5,0,1,0c-1.5-4-3.5-3.5-5-3.5C752.6,478.2,752,478.2,751.5,478.2z
				 M845.9,523.2c-4-1.5-5-0.5-6.1,1c-0.5,0.5-0.5,0.5-1,1c2.5,1,4,1,5,0.5v-0.5l0,0c0.5-0.5,1-1,1.5-1.5
				C845.4,523.7,845.9,523.2,845.9,523.2z M747.5,473.2c1,2.5,2,3.5,3,4h0.5l0,0c0.5,0,1,0,2,0c0.5,0,0.5,0,1,0c-1-3-2.5-3.5-3.5-4
				l0,0l0,0c-0.5,0-1,0-1.5,0C748,473.2,748,473.2,747.5,473.2z M852.5,523.2c-4-1.5-5,0-6.1,1.5c-0.5,0.5-0.5,1-1,1
				c2.5,1,4,0.5,5,0v-0.5l0,0c0.5-0.5,1-1,1-1.5C852,523.7,852.5,523.2,852.5,523.2z M743.5,467.6c1,2.5,2,3.5,3,4h0.5l0,0
				c0.5,0,1,0,2,0c0.5,0,0.5,0,1,0c-1-4-3-4-5-4C744.5,467.6,744,467.6,743.5,467.6z M859.1,522.7c-4-1-5,0-6.1,2
				c-0.5,0.5-0.5,1-1,1c3,0.5,4,0.5,5-0.5v-0.5l0,0c0.5-0.5,0.5-1,1-1.5C858.6,523.7,859.1,523.2,859.1,522.7z M739.9,461.6
				c0.5,2.5,1.5,3.5,2.5,4h0.5v0.5c0.5,0,1,0,2,0c0.5,0,0.5,0,1,0c-0.5-3-2-4-3-4l0,0l0,0c-0.5,0-1,0-1.5,0
				C740.9,461.6,740.4,461.6,739.9,461.6z M865.6,522.2c-4-1-5,0.5-6.1,2c0,0.5-0.5,1-0.5,1c2.5,0.5,4,0,5-0.5v-0.5l0,0
				c0.5-0.5,0.5-1,1-1.5C865.6,523.2,865.6,522.7,865.6,522.2z M736.9,455.5c0.5,3,1.5,4,2.5,4.5l0,0l0,0c0.5,0,1,0,2,0.5
				c0.5,0,1,0,1,0c-1-4-2.5-4.5-4.5-4.5C737.4,456,736.9,456,736.9,455.5z M867.2,522.7c-0.5,0.5-0.5,1-0.5,1c0,0.5-0.5,1-0.5,1
				c2.5,0.5,4,0,5-1v-0.5l0,0c0.5-0.5,0.5-1,1-1.5c0-0.5,0.5-0.5,0.5-1C869.2,520.6,868.2,521.7,867.2,522.7L867.2,522.7
				L867.2,522.7z M733.9,449.5c0.5,3,1.5,4,2.5,4.5h0.5l0,0c0.5,0,1,0.5,1.5,0.5s0.5,0,1,0c-0.5-4-2.5-4.5-4-5
				C734.4,450,733.9,450,733.9,449.5z M878.8,520.1c-4-0.5-5,1-5.6,3c0,0.5-0.5,1-0.5,1c3,0.5,4-0.5,5-1v-0.5l0,0
				c0.5-0.5,0.5-1,1-1.5C878.8,520.6,878.8,520.6,878.8,520.1z M730.8,443.4c0.5,3,1,4,2,4.5l0,0l0,0c0.5,0,1,0.5,2,0.5
				c0.5,0,1,0,1,0c-0.5-3-1.5-4-2.5-4.5l0,0c-0.5,0-1,0-1.5-0.5C731.9,443.4,731.3,443.4,730.8,443.4z M880.3,520.1
				c0,0.5-0.5,1-0.5,1.5c0,0.5-0.5,1-0.5,1.5c3,0,4-0.5,5-1.5l0,0l0,0c0.5-0.5,0.5-1,1-2c0-0.5,0-0.5,0.5-1
				C882.3,518.1,880.8,519.1,880.3,520.1L880.3,520.1L880.3,520.1z M730.8,441.9L730.8,441.9c0.5,0.5,1,0.5,2,0.5c0.5,0,0.5,0,1,0
				c0-4-2-4.5-3.5-5c-0.5,0-1-0.5-1.5-0.5C728.8,439.9,729.8,440.9,730.8,441.9L730.8,441.9z M886.8,518.6c0,0.5-0.5,1-0.5,1.5
				c0,0.5-0.5,1-0.5,1.5c2.5,0,4-0.5,4.5-1.5v-0.5h0.5c0.5-0.5,0.5-1,0.5-1.5c0-0.5,0-0.5,0.5-1
				C888.4,516.6,887.3,517.6,886.8,518.6L886.8,518.6L886.8,518.6z M728.8,435.3c0.5,0.5,1,0.5,1.5,0.5s0.5,0,1,0.5
				c0-4.5-1.5-5-3.5-5.6c-0.5,0-1-0.5-1-0.5C726.8,433.3,727.3,434.3,728.8,435.3L728.8,435.3L728.8,435.3z M897.9,514.6
				c-4,0-4.5,2-5,3.5c0,0.5,0,1-0.5,1c2.5,0,4-1,4.5-1.5v-0.5l0,0c0.5-0.5,0.5-1,0.5-2C897.9,515.1,897.9,514.6,897.9,514.6z
				 M726.8,428.8c0.5,0.5,1,0.5,1.5,0.5s0.5,0,1,0.5c0-3-0.5-4-1.5-5l0,0l0,0c-0.5,0-1-0.5-1.5-0.5s-1-0.5-1.5-0.5
				C725.3,426.7,725.8,428.3,726.8,428.8L726.8,428.8L726.8,428.8z M904,512.1c-4,0.5-4.5,2-5,4c0,0.5,0,1-0.5,1.5c3-0.5,4-1,4.5-2
				v-0.5l0,0c0-0.5,0.5-1,0.5-1.5C904,512.6,904,512.1,904,512.1z M725.3,422.2c0.5,0.5,1,0.5,1.5,1c0.5,0,0.5,0.5,1,0.5
				c0.5-4-1-5-3-5.6c-0.5,0-1-0.5-1.5-0.5C723.8,420.2,724.3,421.2,725.3,422.2L725.3,422.2L725.3,422.2z M905.5,511.6
				c0,0.5,0,1-0.5,1.5c0,0.5,0,1-0.5,1.5c2.5-0.5,4-1,4.5-2v-0.5h0.5c0-0.5,0.5-1,0.5-2c0-0.5,0-1,0-1
				C907,509.5,906,510.5,905.5,511.6L905.5,511.6L905.5,511.6z M724.3,415.6c0.5,0.5,1,0.5,1.5,1c0.5,0,0.5,0.5,1,0.5
				c0.5-4-1-5-2.5-6.1c-0.5,0-1-0.5-1-0.5C722.8,413.1,722.8,414.6,724.3,415.6L724.3,415.6L724.3,415.6z M915.6,505.5
				c-4,1-4.5,2.5-4.5,4.5c0,0.5,0,1,0,1.5c2.5-0.5,4-1.5,4.5-2.5l0,0l0,0c0-0.5,0-1,0.5-2C915.6,506.5,915.6,506,915.6,505.5z
				 M724.8,410.1c0.5,0,0.5,0.5,1,0.5c0.5-3,0-4-1-5l0,0l0,0c-0.5-0.5-1-0.5-1.5-1c-0.5,0-1-0.5-1-0.5c-0.5,3,0,4,0.5,5l0,0l0,0
				C723.8,409.6,724.3,409.6,724.8,410.1L724.8,410.1z M921.2,502c-4,1-4,2.5-4.5,4.5c0,0.5,0,1,0,1.5c2.5-0.5,3.5-1.5,4-2.5V505
				h0.5c0-0.5,0-1,0-1.5C921.2,503,921.2,502.5,921.2,502z M722.8,402.5c0.5,0.5,1,0.5,1.5,1c0.5,0,0.5,0.5,1,0.5c1-3,0-4.5-1-5.6
				l0,0l0,0c-0.5-0.5-0.5-0.5-1-1c-0.5-0.5-1-0.5-1-1C721.8,399.5,721.8,401,722.8,402.5L722.8,402.5L722.8,402.5z M926.7,498.4
				c-4,1.5-4,3-4,5c0,0.5,0,1,0,1.5c2.5-1,3.5-2,4-3v-0.5l0,0c0-0.5,0-1,0-2C926.7,498.9,926.7,498.9,926.7,498.4z M722.8,395.4
				c0.5,0.5,1,1,1.5,1c0.5,0,0.5,0.5,1,0.5c1.5-4,0-5-1.5-6.1c-0.5-0.5-1-0.5-1-1C721.3,392.9,721.8,394.4,722.8,395.4L722.8,395.4
				L722.8,395.4z M928.2,497.9c0,0.5,0,1,0,1.5c0,0.5,0,1,0,1.5c2.5-1,3.5-2,4-3v-0.5l0,0c0-0.5,0-1,0-2c0-0.5,0-1,0-1
				C929.2,495.4,928.2,496.4,928.2,497.9L928.2,497.9L928.2,497.9z M722.8,388.9c0.5,0.5,1,1,1.5,1.5c0.5,0,0.5,0.5,1,0.5
				c1.5-4,0-5-1-6.1c-0.5-0.5-0.5-0.5-1-1C721.8,386.4,722.3,387.4,722.8,388.9L722.8,388.9L722.8,388.9z M936.8,489.9
				c-4,1.5-3.5,3.5-3.5,5c0,0.5,0,1,0,1.5c2.5-1,3.5-2.5,3.5-3.5l0,0l0,0c0-0.5,0-1.5,0-2C937.3,490.9,937.3,490.4,936.8,489.9z
				 M723.3,382.3c0.5,0.5,1,1,1.5,1c0.5,0,0.5,0.5,1,1c1.5-3,1-4,0-5l0,0l0,0c-0.5-0.5-0.5-0.5-1-1c-0.5-0.5-0.5-0.5-1-1
				C722.8,379.3,722.8,380.8,723.3,382.3L723.3,382.3L723.3,382.3z M941.9,485.3c-4,2-3.5,3.5-3.5,5.6c0,0.5,0,1,0,1.5
				c2.5-1.5,3.5-2.5,3.5-3.5v-0.5h0.5c0-0.5,0-1,0-1.5C941.9,486.3,941.9,485.8,941.9,485.3z M724.3,375.3c0.5,0.5,1,1,1.5,1.5
				c0.5,0.5,0.5,0.5,1,1c2-3.5,0.5-5-0.5-6.6c-0.5-0.5-0.5-0.5-1-1C723.8,372.7,723.8,374.2,724.3,375.3L724.3,375.3L724.3,375.3z
				 M946.4,480.8c-3.5,2-3.5,4-3,5.6c0,0.5,0,1,0,1.5c2.5-1.5,3-2.5,3.5-3.5v-0.5l0,0c0-0.5,0-1-0.5-2
				C946.4,481.3,946.4,480.8,946.4,480.8z M725.8,368.7c0.5,0.5,0.5,1,1,1.5c0,0,0.5,0.5,0.5,1c2-3.5,1-5,0-6.6
				c-0.5-0.5-0.5-0.5-1-1C725.3,366.2,725.3,367.2,725.8,368.7L725.8,368.7L725.8,368.7z M947.4,479.8c0,0.5,0,1,0.5,1.5
				c0,0.5,0,1,0.5,1.5c2-1.5,3-2.5,3-4v-0.5l0,0c0-0.5,0-1-0.5-2c0-0.5,0-0.5-0.5-1C947.9,477.2,947.4,478.2,947.4,479.8
				L947.4,479.8L947.4,479.8z M727.3,362.1c0.5,0.5,0.5,1,1,1.5c0,0.5,0.5,0.5,0.5,1c2.5-3.5,1.5-5,0-6.6c-0.5-0.5-0.5-1-1-1
				C726.8,359.1,726.8,360.6,727.3,362.1L727.3,362.1L727.3,362.1z M954.5,470.2c-3.5,2.5-3,4-2.5,6.1c0,0.5,0.5,1,0.5,1.5
				c2.5-1.5,3-3,3-4l0,0l0,0c0-0.5-0.5-1-0.5-2C955,470.7,955,470.7,954.5,470.2z M729.3,355.6c0,0.5,0.5,1,1,1.5
				c0,0.5,0.5,0.5,0.5,1c2.5-3.5,1.5-5,0.5-6.6c-0.5-0.5-0.5-1-1-1C728.8,352.5,728.8,354,729.3,355.6L729.3,355.6L729.3,355.6z
				 M958.5,464.6c-3.5,2.5-2.5,4-2,6.1c0,0.5,0.5,1,0.5,1.5c2-2,3-3,2.5-4.5l0,0l0,0c0-0.5-0.5-1-0.5-2
				C958.5,465.6,958.5,465.1,958.5,464.6z M731.3,349.5c0,0.5,0.5,1,1,1.5c0,0.5,0.5,0.5,0.5,1c2.5-3,2-4.5,1-6.6
				c-0.5-0.5-0.5-1-0.5-1C731.3,346.5,731.3,348,731.3,349.5L731.3,349.5L731.3,349.5z M961.6,459.1c-3,3-2.5,4.5-1.5,6.1
				c0,0.5,0.5,1,0.5,1.5c2-2,2.5-3.5,2.5-4.5l0,0l0,0c0-0.5-0.5-1-0.5-1.5C962.1,459.6,962.1,459.6,961.6,459.1z M734.4,342.9
				c0,0.5,0.5,1,1,1.5c0,0.5,0.5,0.5,0.5,1c3-3,2-4.5,1-6.1c0-0.5-0.5-1-0.5-1.5C734.4,340.4,733.9,341.4,734.4,342.9L734.4,342.9
				L734.4,342.9z M963.1,458c0,0.5,0.5,1,0.5,1.5c0,0.5,0.5,1,0.5,1.5c2-2,2.5-3.5,2-4.5l-0.5-0.5l0,0c0-0.5-0.5-1-1-1.5
				c0-0.5-0.5-0.5-0.5-1C962.6,455.5,962.6,456.5,963.1,458L963.1,458L963.1,458z M736.9,336.9c0,0.5,0.5,1,1,1.5
				c0,0.5,0.5,0.5,0.5,1c2-2,2.5-3.5,2-5l0,0l0,0c0-0.5-0.5-1-0.5-1.5c0-0.5-0.5-1-0.5-1C737.4,334.4,736.9,335.4,736.9,336.9
				L736.9,336.9L736.9,336.9z M967.6,446.9c-3,3-2,4.5-1,6.6c0,0.5,0.5,1,0.5,1c2-2,2-3.5,2-4.5l-0.5-0.5l0,0c0-0.5-0.5-1-1-1.5
				C968.1,447.9,968.1,447.4,967.6,446.9z M740.4,331.3c0,0.5,0.5,1,0.5,1.5s0.5,0.5,0.5,1c2.5-2,2.5-3.5,2.5-4.5l0,0l0,0
				c0-0.5-0.5-1-0.5-1.5c0-0.5-0.5-1-0.5-1.5c-2,2-2.5,3-2.5,4.5V331.3L740.4,331.3z M970.1,440.9c-2.5,3.5-2,4.5-0.5,6.6
				c0,0.5,0.5,1,0.5,1c1.5-2,2-3.5,2-4.5l0,0l0,0c0-0.5-0.5-1-1-1.5C970.6,441.4,970.6,441.4,970.1,440.9z M744,325.3
				c0,0.5,0.5,1,0.5,1.5s0.5,0.5,0.5,1c3.5-2.5,2.5-4,2-6.1c0-0.5-0.5-1-0.5-1.5C744.5,322.7,744,323.8,744,325.3L744,325.3
				L744,325.3z M972.7,434.8c-2.5,3.5-1.5,4.5-0.5,6.6c0.5,0.5,0.5,1,1,1.5c1.5-2.5,2-3.5,1.5-5l0,0l0,0c0-0.5-0.5-1-1-1.5
				C972.7,435.3,972.7,435.3,972.7,434.8z M747.5,319.7c0,0.5,0.5,1,0.5,2c0,0.5,0.5,1,0.5,1c3.5-2.5,3-4,2.5-6.1
				c0-0.5-0.5-1-0.5-1.5C748.5,317.2,747.5,318.2,747.5,319.7L747.5,319.7L747.5,319.7z M974.2,428.3c-2.5,3.5-1.5,5,0,6.6
				c0.5,0.5,0.5,1,1,1c1.5-2.5,1.5-4,1-5l0,0l0,0c-0.5-0.5-0.5-1-1-1.5C974.7,428.8,974.7,428.8,974.2,428.3z M752,314.7
				c0,0.5,0,1,0.5,2c0,0.5,0,0.5,0.5,1c3.5-2.5,3-4,2.5-5.6c0-0.5,0-1-0.5-1.5C752.6,311.6,752,313.2,752,314.7L752,314.7L752,314.7
				z M975.7,421.7c-2,3.5-1,5,0.5,6.6c0.5,0.5,0.5,0.5,1,1c1.5-2.5,1.5-4,1-5l0,0l0,0c-0.5-0.5-1-1-1-1.5
				C976.2,422.7,976.2,422.2,975.7,421.7z M756.6,309.6c0,0.5,0,1,0.5,2c0,0.5,0,0.5,0,1c3.5-2,3.5-3.5,3-5.6c0-0.5,0-1,0-1.5
				C757.1,306.6,756.6,308.1,756.6,309.6L756.6,309.6L756.6,309.6z M976.7,415.6c-2,4-1,5,0.5,6.6c0.5,0.5,0.5,0.5,1,1
				c1-2.5,1-4,1-5h-0.5v-0.5c-0.5-0.5-1-1-1-1.5C977.7,416.1,977.2,415.6,976.7,415.6z M761.1,304.6c0,0.5,0,1,0,2c0,0.5,0,0.5,0,1
				c4-2,3.5-3.5,3-5.6c0-0.5,0-1,0-1.5C762.1,302,761.1,303.1,761.1,304.6L761.1,304.6L761.1,304.6z M977.7,409.1c-2,4-0.5,5,1,6.6
				c0.5,0.5,0.5,0.5,1,1c1-2.5,1-4,0.5-5l0,0l0,0c-0.5-0.5-1-1-1.5-1.5C978.2,409.1,978.2,409.1,977.7,409.1z M766.2,300
				c0,0.5,0,1,0,2c0,0.5,0,0.5,0,1c3-1.5,3.5-2.5,3.5-4l0,0l0,0c0-0.5,0-1,0-1.5s0-1,0-1.5C767.2,297.5,766.2,298.5,766.2,300
				L766.2,300L766.2,300z M978.2,402c-1.5,4,0,5,1,6.6c0.5,0.5,1,0.5,1,1c1-2.5,1-4,0-5h-0.5l0,0c-0.5-0.5-1-1-1.5-1
				C978.7,402.5,978.7,402.5,978.2,402z M771.2,295.5c0,0.5,0,1,0,2c0,0.5,0,0.5,0,1c4-1.5,4-3,3.5-5c0-0.5,0-1,0-1.5
				C772.7,293,771.7,294,771.2,295.5L771.2,295.5L771.2,295.5z M978.2,395.4c-1.5,4,0,5,1.5,6.1c0.5,0.5,0.5,0.5,1,1
				c1-2.5,0.5-4,0-5h-0.5V397c-0.5-0.5-1-0.5-1.5-1C979.2,396,978.7,396,978.2,395.4z M776.3,291.4c0,0.5,0,1,0,2c0,0.5,0,0.5,0,1
				c4-1,4-3,4-5c0-0.5,0-1,0-1.5C778.3,288.9,776.8,289.9,776.3,291.4L776.3,291.4L776.3,291.4z M978.2,388.9c-1,4,0.5,5,2,6.1
				c0.5,0,0.5,0.5,1,1c0.5-2.5,0.5-4,0-5h-0.5v-0.5c-0.5-0.5-1-0.5-1.5-1C978.7,389.4,978.2,389.4,978.2,388.9z M781.8,287.9
				c0,0.5,0,1,0,2c0,0.5,0,0.5,0,1c4-1,4-2.5,4.5-4.5c0-0.5,0-1,0-1.5c-2.5,0.5-3.5,1.5-4,2.5L781.8,287.9L781.8,287.9z
				 M978.7,387.4c0.5,0.5,1,0.5,1,1c0.5,0,1,0.5,1,0.5c0.5-3,0-4-0.5-5l0,0l0,0c-0.5-0.5-1.5-1-2.5-1.5
				C976.7,385.3,977.7,386.9,978.7,387.4L978.7,387.4L978.7,387.4z M787.9,284.4c0,0.5,0,1-0.5,2c0,0.5,0,0.5,0,1
				c4-1,4.5-2.5,4.5-4.5c0-0.5,0-1,0-1.5C789.4,281.9,788.4,282.9,787.9,284.4L787.9,284.4L787.9,284.4z M977.7,380.8
				c1,0.5,1.5,1,2.5,1.5c0.5-3,0-4-1-5l0,0l0,0c-0.5-0.5-1-0.5-1.5-1c-0.5,0-0.5-0.5-1-0.5C976.2,378.8,976.7,379.8,977.7,380.8
				L977.7,380.8L977.7,380.8z M793.9,280.8c0,0.5-0.5,1-0.5,2c0,0.5,0,1,0,1c4-0.5,4.5-2.5,5-4c0-0.5,0-1,0.5-1.5
				C796,278.8,794.5,279.8,793.9,280.8L793.9,280.8L793.9,280.8z M975.7,369.2c-0.5,4,1,5,3,5.6c0.5,0,1,0.5,1.5,0.5c0-2.5,0-4-1-5
				h-0.5v-0.5c-0.5-0.5-1-0.5-1.5-1C976.2,369.7,975.7,369.7,975.7,369.2z M800,278.3c-0.5,0.5-0.5,1-0.5,2c0,0.5,0,0.5,0,1
				c4.5-0.5,4.5-2,5-4c0-0.5,0-1,0.5-1.5C802,275.8,800.5,276.8,800,278.3L800,278.3L800,278.3z M973.7,362.6c-0.5,4.5,1.5,5,3,5.6
				c0.5,0,1,0.5,1,0.5c0-3-0.5-4-1.5-5h-0.5l0,0c-0.5-0.5-1-0.5-1.5-0.5C974.7,363.1,974.2,363.1,973.7,362.6z M806.1,275.8
				c-0.5,0.5-0.5,1-0.5,2c0,0.5,0,0.5,0,1c4,0,4.5-2,5-3.5c0-0.5,0-1,0.5-1.5C808.1,273.8,807.1,274.3,806.1,275.8L806.1,275.8
				L806.1,275.8z M972.2,356.6c0,4,1.5,5,3.5,5.6c0.5,0,1,0.5,1.5,0.5c0-2.5-0.5-4-1.5-4.5h-0.5l0,0c-0.5-0.5-1-0.5-1.5-0.5
				C972.7,356.6,972.2,356.6,972.2,356.6z M812.6,273.3c-0.5,0.5-0.5,1-0.5,1.5s0,0.5-0.5,1c3,0,4-1,5-2l0,0l0,0
				c0-0.5,0.5-1,0.5-1.5c0-0.5,0.5-1,0.5-1.5C814.6,271.8,813.6,272.3,812.6,273.3L812.6,273.3L812.6,273.3z M969.6,350.5
				c0,4,2,4.5,3.5,5c0.5,0,1,0.5,1.5,0.5c0-3-1-4-2-4.5l0,0l0,0c-0.5-0.5-1-0.5-2-0.5C970.6,350.5,970.1,350.5,969.6,350.5z
				 M819.2,271.3c-0.5,0.5-0.5,1-0.5,1.5c0,0.5,0,0.5-0.5,1c3,0,4.5-0.5,5-2l0,0l0,0c0-0.5,0.5-1,0.5-1.5c0-0.5,0.5-1,0.5-1.5
				C821.2,269.7,820.2,270.2,819.2,271.3L819.2,271.3L819.2,271.3z M967.1,344c0.5,3,1.5,4,2.5,4.5l0,0l0,0c0.5,0,1,0,1.5,0.5
				c0.5,0,1,0,1.5,0.5c-0.5-3-1-4-2-4.5l0,0l0,0c-0.5,0-1-0.5-2-0.5C967.6,344.5,967.6,344.5,967.1,344z M825.8,270.2
				c-0.5,0.5-0.5,1-1,1.5c0,0.5-0.5,0.5-0.5,1c4,0.5,5-1,5.6-3c0-0.5,0.5-1,0.5-1C827.8,268.2,826.8,268.7,825.8,270.2L825.8,270.2
				L825.8,270.2z M964.1,338.4c0.5,4,2.5,4.5,4,5c0.5,0,1,0,1.5,0.5c-0.5-3-1.5-4-2.5-4.5h-0.5l0,0c-0.5,0-1,0-1.5-0.5
				C965.1,338.4,964.6,338.4,964.1,338.4z M832.3,268.7c-0.5,0.5-0.5,1-1,1.5c0,0.5-0.5,0.5-0.5,1c4,1,5-0.5,6.1-2.5
				c0-0.5,0.5-1,0.5-1C834.8,267.2,833.3,267.7,832.3,268.7L832.3,268.7L832.3,268.7z M961.1,332.3c1,4,2.5,4.5,4.5,4.5
				c0.5,0,1,0,1.5,0c-0.5-2.5-1.5-4-2.5-4.5l0,0l0,0c-0.5,0-1,0-2-0.5C961.6,332.3,961.6,332.3,961.1,332.3z M838.9,268.2
				c-0.5,0.5-0.5,1-1,1.5c0,0.5-0.5,0.5-0.5,1c4,1,5-0.5,6.1-2c0.5-0.5,0.5-1,1-1C841.4,266.7,840.4,266.7,838.9,268.2L838.9,268.2
				L838.9,268.2z M957.5,326.8c1,3,2,4,3.5,4l0,0l0,0c0.5,0,1,0,1.5,0s1,0,1.5,0c-0.5-2.5-1.5-3.5-2.5-4h-0.5v-0.5c-0.5,0-1,0-2,0
				C958,326.8,958,326.8,957.5,326.8z M845.9,267.2c-0.5,0.5-1,1-1,1.5s-0.5,0.5-0.5,1c4,1,5-0.5,6.1-2c0.5-0.5,0.5-0.5,1-1
				C848.5,266.2,847,266.7,845.9,267.2L845.9,267.2L845.9,267.2z M954,321.2c1,4,3,4,5,4c0.5,0,1,0,1.5,0c-1-2.5-2-3.5-3-4H957l0,0
				c-0.5,0-1,0-1.5,0C954.5,321.2,954,321.2,954,321.2z M852.5,267.2c-0.5,0.5-0.5,1-1,1.5c0,0.5-0.5,0.5-0.5,1c4,1.5,5,0,6.1-1.5
				c0.5-0.5,0.5-1,1-1C855,266.2,854,266.2,852.5,267.2L852.5,267.2L852.5,267.2z M949.4,316.2c1,3,2.5,3.5,3.5,4l0,0l0,0
				c0.5,0,1,0,1.5,0s1,0,1.5,0c-1-2.5-2-3.5-3-4h-0.5l0,0c-0.5,0-1,0-1.5,0C950.4,316.2,949.9,316.2,949.4,316.2z M859.1,267.7
				c-0.5,0.5-1,1-1,1.5c0,0.5-0.5,0.5-0.5,1c3,1,4,0.5,5,0l0,0l0,0c0.5-0.5,0.5-0.5,1-1c0.5-0.5,0.5-0.5,1-1
				C862.1,266.7,860.6,266.7,859.1,267.7L859.1,267.7L859.1,267.7z M945.4,311.1c1.5,4,3.5,3.5,5,3.5c0.5,0,1,0,1.5,0
				c-1-2.5-2.5-3.5-3.5-3.5h-0.5l0,0c-0.5,0-1,0-1.5,0S945.9,311.1,945.4,311.1z M866.1,268.2c-0.5,0.5-1,1-1,1.5s-0.5,0.5-0.5,1
				c4,2,5,0.5,6.1-1c0.5-0.5,0.5-0.5,1-1C868.7,267.2,867.2,267.2,866.1,268.2L866.1,268.2L866.1,268.2z M940.9,306.1
				c2,4,3.5,3.5,5.6,3.5c0.5,0,1,0,1.5,0c-1-2.5-2.5-3-3.5-3.5h-0.5l0,0c-0.5,0-1,0-2,0C941.4,306.1,940.9,306.1,940.9,306.1z
				 M870.7,271.3c3,1.5,4,1,5,0.5l0,0l0,0c0.5-0.5,0.5-0.5,1-1c0.5-0.5,0.5-0.5,1-1c-2.5-1-4-1.5-5-1v0.5l0,0c-0.5,0.5-1,1-1.5,1
				C871.2,270.7,870.7,270.7,870.7,271.3z M935.8,301.5c2,3.5,3.5,3.5,5.6,3c0.5,0,1,0,1.5,0c-1.5-2.5-2.5-3-3.5-3.5h-0.5l0,0
				c-0.5,0-1,0-2,0.5C936.8,301.5,936.3,301.5,935.8,301.5z M877.2,272.3c2.5,1.5,4,1.5,5.6,0.5l0,0l0,0c0.5-0.5,0.5-0.5,1-1
				c0.5-0.5,0.5-0.5,1-1c-2.5-1.5-4-1.5-5-1l0,0l0,0c-0.5,0.5-1,0.5-1.5,1C877.8,271.8,877.2,272.3,877.2,272.3z M930.8,297.5
				c1.5,2.5,3,3,4.5,3l0,0l0,0c0.5,0,1,0,1.5-0.5c0.5,0,1,0,1.5-0.5c-1.5-2-2.5-3-4-3h-0.5l0,0c-0.5,0-1,0-2,0.5
				C931.3,297.5,931.3,297.5,930.8,297.5z M883.8,273.8c3.5,2.5,5,1.5,6.6,0c0.5-0.5,1-0.5,1-1c-2.5-1.5-3.5-1.5-5-1.5v0.5h-0.5
				c-0.5,0.5-1,0.5-1.5,1C884.3,273.3,883.8,273.3,883.8,273.8z M925.2,293.5c2.5,3.5,4,3,6.1,2.5c0.5,0,1-0.5,1.5-0.5
				c-1.5-2-3-3-4-3l0,0l0,0c-0.5,0-1,0.5-2,0.5C926.2,293.5,925.7,293.5,925.2,293.5z M889.9,275.8c3.5,2.5,5,1.5,6.6,0.5
				c0.5-0.5,0.5-0.5,1-0.5c-2.5-1.5-3.5-2-4.5-1.5l0,0l0,0c-0.5,0-1,0.5-1.5,1C890.4,275.3,890.4,275.3,889.9,275.8z M920.2,289.9
				c2.5,3.5,4,2.5,6.1,2c0.5,0,1-0.5,1.5-0.5c-2-2-3-3-4.5-2.5l0,0l0,0c-0.5,0-1,0.5-2,0.5C920.7,289.4,920.2,289.4,920.2,289.9z
				 M896.4,277.8c2.5,2,4,2,5,1.5l0,0l0,0c0.5,0,1-0.5,1.5-1c0.5,0,0.5-0.5,1-0.5c-2-1.5-3.5-2-4.5-2v0.5l0,0c-0.5,0-1,0.5-1.5,1
				C896.9,277.3,896.4,277.8,896.4,277.8z M914.1,286.4c2,2.5,3.5,2.5,5,2.5l0,0l0,0c0.5,0,1-0.5,1.5-0.5s1-0.5,1.5-0.5
				c-2-2-3.5-2.5-4.5-2.5l0,0l0,0c-0.5,0-1,0.5-1.5,0.5C915.1,285.9,914.6,286.4,914.1,286.4z M902.5,280.3c3,3,4.5,2,6.6,1
				c0.5-0.5,1-0.5,1.5-0.5c-2-2-3.5-2-4.5-2l-0.5,0.5l0,0c-0.5,0-1,0.5-1.5,1C903,279.8,902.5,280.3,902.5,280.3z M908.5,282.9
				c3,3,4.5,2.5,6.1,1.5c0.5,0,1-0.5,1-0.5c-2-2-3.5-2.5-4.5-2.5l0,0l0,0c-0.5,0-1,0.5-2,1C909.1,282.9,908.5,282.9,908.5,282.9z"/>
			<path class="st1" d="M851.5,533.3c-75.7,0-136.8-61.6-136.8-136.8c0-75.7,61.6-136.8,136.8-136.8c75.7,0,136.8,61.6,136.8,136.8
				C988.8,472.2,927.2,533.3,851.5,533.3z M851.5,261.2c-74.7,0-135.3,60.6-135.3,135.3s60.6,135.3,135.3,135.3
				s135.3-60.6,135.3-135.3S926.2,261.2,851.5,261.2z"/>
			<path class="st1" d="M851.5,517.1c-66.6,0-120.7-54-120.7-120.7s54-120.7,120.7-120.7s120.7,54,120.7,120.7
				S918.1,517.1,851.5,517.1z M851.5,277.3c-65.6,0-119.1,53.5-119.1,119.1s53.5,119.1,119.1,119.1s119.1-53.5,119.1-119.1
				S917.1,277.3,851.5,277.3z"/>
			<path class="st1" d="M851.5,555c-7.1,0-13.6-3.5-20.2-6.6c-4.5-2.5-9.1-4.5-13.6-5.6c-3.5-1-8.1-1-11.1-1c-1,0-2.5,0-3.5,0
				s-2.5,0-3.5,0c-6.6,0-12.1-0.5-16.7-3c-6.1-3-10.6-8.6-15.1-14.1c-3-4-6.1-8.1-10.1-11.1c-3.5-3-8.6-5-13.1-7.1
				c-6.6-3-13.1-6.1-17.2-11.6c-4-5.6-5.6-12.6-7.1-19.2c-1-5-2-10.1-4-14.1s-5-8.1-8.6-12.1c-4.5-5.6-9.1-11.1-10.6-18.2
				c-1.5-6.6,0-13.6,2-20.2c1-5,2.5-10.1,2.5-15.1s-1-10.1-2.5-15.1c-1.5-6.6-3.5-13.6-2-20.2s6.1-12.6,10.6-18.2
				c3-4,6.6-7.6,8.6-12.1c2-4.5,3-9.6,4-14.1c1.5-7.1,3-14.1,7.1-19.2c4-5.6,11.1-8.6,17.2-11.6c4.5-2,9.1-4.5,13.1-7.1
				c3.5-3,7.1-7.1,10.1-11.1c4.5-5.6,8.6-11.6,15.1-14.1c4.5-2.5,10.1-3,16.7-3c1,0,2.5,0,3.5,0s2.5,0,3.5,0c3.5,0,7.6,0,11.1-1
				c4.5-1,9.1-3,13.6-5.6c6.6-3,13.1-6.6,20.2-6.6s13.6,3.5,20.2,6.6c4.5,2.5,9.1,4.5,13.6,5.6c3.5,1,8.1,1,11.1,1c1,0,2.5,0,3.5,0
				s2.5,0,3.5,0c6.6,0,12.1,0.5,16.7,3c6.1,3,10.6,8.6,15.1,14.1c3,4,6.1,8.1,10.1,11.1c3.5,3,8.6,5,13.1,7.1
				c6.6,3,13.1,6.1,17.2,11.6c4,5.6,5.6,12.6,7.1,19.2c1,5,2,10.1,4,14.1s5,8.1,8.6,12.1c4.5,5.6,9.1,11.1,10.6,18.2
				c1.5,6.6,0,13.6-2,20.2c-1,5-2.5,10.1-2.5,15.1s1,10.1,2.5,15.1c1.5,6.6,3.5,13.6,2,20.2s-6.1,12.6-10.6,18.2
				c-3,4-6.6,7.6-8.6,12.1c-2,4.5-3,9.6-4,14.1c-1.5,7.1-3,14.1-7.1,19.2c-4,5.6-11.1,8.6-17.2,11.6c-4.5,2-9.1,4.5-13.1,7.1
				c-3.5,3-7.1,7.1-10.1,11.1c-4.5,5.6-8.6,11.6-15.1,14.1c-4.5,2.5-10.1,3-16.7,3l0,0c-1,0-2.5,0-3.5,0s-2.5,0-3.5,0
				c-3.5,0-7.6,0-11.1,1c-4.5,1-9.1,3-13.6,5.6C865.1,551.9,858.6,555,851.5,555z M807.1,540.3c3.5,0,7.6,0,11.6,1
				c4.5,1,9.1,3.5,13.6,5.6c6.1,3,12.6,6.6,19.2,6.6s13.1-3,19.2-6.6c4.5-2,9.1-4.5,13.6-5.6c4-1,8.1-1,11.6-1c1,0,2.5,0,3.5,0
				c1,0,2.5,0,3.5,0l0,0c6.6,0,11.6-0.5,16.2-2.5c6.1-3,10.1-8.6,14.6-14.1c3-4,6.6-8.1,10.1-11.1c4-3,8.6-5.6,13.1-7.6
				c6.1-3,12.6-6.1,16.7-11.1c4-5,5.6-12.1,7.1-18.7c1-5,2-10.1,4.5-14.6c2-4.5,5.6-8.6,8.6-12.1c4.5-5.6,9.1-11.1,10.6-17.2
				c1.5-6.1,0-12.6-2-19.7c-1-5-2.5-10.1-2.5-15.1s1.5-10.1,2.5-15.1c1.5-7.1,3-13.6,2-19.7c-1.5-6.6-6.1-12.1-10.6-17.2
				c-3-4-6.6-8.1-8.6-12.1c-2-4.5-3-9.6-4.5-14.6c-1.5-6.6-3-13.6-7.1-18.7s-10.6-8.1-16.7-11.1c-4.5-2-9.6-4.5-13.1-7.6
				c-4-3-7.1-7.1-10.1-11.1c-4-5.6-8.6-11.1-14.6-14.1c-4.5-2-9.6-2.5-16.2-2.5c-1,0-2.5,0-3.5,0c-1,0-2.5,0-3.5,0
				c-3.5,0-7.6,0-11.6-1c-4.5-1-9.1-3.5-13.6-5.6c-6.1-3-12.6-6.6-19.2-6.6s-13.1,3-19.2,6.6c-4.5,2-9.1,4.5-13.6,5.6
				c-4,1-8.1,1-11.6,1c-1,0-2.5,0-3.5,0c-1,0-2.5,0-3.5,0c-6.6,0-11.6,0.5-16.2,2.5c-6.1,3-10.1,8.6-14.6,14.1
				c-3,4-6.6,8.1-10.1,11.1c-4,3-8.6,5.6-13.1,7.6c-6.1,3-12.6,6.1-16.7,11.1c-4,5-5.6,12.1-7.1,18.7c-1,5-2,10.1-4.5,14.6
				c-2,4.5-5.6,8.6-8.6,12.1c-4.5,5.6-9.1,11.1-10.6,17.2c-1.5,6.1,0,12.6,2,19.7c1,5,2.5,10.1,2.5,15.1s-1.5,10.1-2.5,15.1
				c-1.5,7.1-3,13.6-2,19.7c1.5,6.6,6.1,12.1,10.6,17.2c3,4,6.6,8.1,8.6,12.1c2,4.5,3,9.6,4.5,14.6c1.5,6.6,3,13.6,7.1,18.7
				S739.9,502,746,505c4.5,2,9.6,4.5,13.1,7.6c4,3,7.1,7.1,10.1,11.1c4,5.6,8.6,11.1,14.6,14.1c4.5,2,9.6,2.5,16.2,2.5
				c1,0,2.5,0,3.5,0C804.5,540.3,805.6,540.3,807.1,540.3z"/>
			<polyline class="st1" points="867.2,284.4 867.2,284.4 867.2,284.4 867.2,284.4 867.2,284.4 			"/>
			<path class="st1" d="M851.5,509.5c-62.1,0-113.1-50.5-113.1-113.1c0-62.1,50.5-113.1,113.1-113.1c62.1,0,113.1,50.5,113.1,113.1
				C964.6,458.6,914.1,509.5,851.5,509.5z M851.5,285.4c-61.1,0-111.1,50-111.1,111.1s50,111.1,111.1,111.1s111.1-50,111.1-111.1
				S913.1,285.4,851.5,285.4z"/>
		</g>
		<path class="st2" d="M836.7,430.9L836.7,430.9L836.7,430.9L836.7,430.9z M835.3,421.4l11.2-6.9v1l-10.9,6.6L835.3,421.4z
			 M845.9,409.5l0.7,1l-12.2,7.3l-0.3-0.7l-0.3-0.7L845.9,409.5z M840.3,396.6L840.3,396.6L840.3,396.6l0.3-0.3V396h-0.3v-0.3h0.3
			v-0.3l-1-0.3c0,0-0.7-2,1.6-4.9l-0.3-2.6l-4,2.3l0,0l-0.3-1.3l10.2-6.6l0,0v1.6l-4.9,3v3c0,0,1.6-0.7,2,1.3v0.3l-0.7,0.7v0.3h0.3
			l0.3,0.7h0.3v0.7v0.3l0.3,0.3v14.2l-0.7,0.7v0.3l-4.3,2.6l0.3-14.8h0.3L840.3,396.6L840.3,396.6z M844.6,372.5L844.6,372.5
			l0.3,0.3l-11.5,7.9l-0.3-0.7L844.6,372.5z M870.3,387L870.3,387l1,0.7v-0.3c1.3,0.7,2.6,3,3,4.6h-0.3v0.3l0,0v2.6h0.3v14.2h-0.3v1
			l-6.3-2v-1.3l-0.3-0.7l-0.3-13.9l0.7-0.3l-0.3-0.3l0.3-0.7v-0.3l1-0.7l-1.3-0.3C867.7,389,868,386.7,870.3,387z M846.6,412.8
			l-11.9,7.3l-0.3-1l12.2-7.6L846.6,412.8L846.6,412.8z M851.5,406.8v-0.7l-0.3-14.5h0.3V391l0.3-0.3v-0.3l0.3-0.3v-0.3h-1
			c0,0,0.3-3.3,3.6-3.6v0.3h1.3v-0.3c2.6,0.3,3.3,1.6,3.6,3.3h-1v0.3l0.3,0.7v0.7l0.3,0.3v0.7h0.3v0.3v14.2h0v1l-7.9,0.7v-0.7
			L851.5,406.8z M846.6,376.8v0.7l-10.2,6.9v-0.3L846.6,376.8z M845.2,373.5v0.7l-0.3,0.3v1.3l-0.7,0.3v-1.3l-1,0.7v1.3l-0.7,0.3v-1
			l-0.7,0.3v1l-0.7,0.7l-0.3-1l-1,0.7v1l-0.7,0.3l-0.3-1l-0.7,0.7v1l-0.7,0.7v-1l-1,0.7v1l-0.7,0.3l-0.3-1l-0.7,0.7v1l-0.7,0.3v-1
			l-0.7,0.3l-0.3-0.7L845.2,373.5L845.2,373.5z M866,405.8L866,405.8l-0.3,1.3H865v-1l-0.3-0.3l-0.3-14.5l1.6,0.3L866,405.8z
			 M837.3,387l-1-2.3v0.3l10.2-6.9l0.3,0.3v2l-0.3,0.3L837.3,387z M902,452.7l-40.9-12.2l-5.6,3l-7.9-1.3v-9.9l3,1v0.3l5.6,1
			l3.3-1.6l0,0v0.3l1.3-0.7l1-0.3l2,0.7l0.3-0.3l13.9,4.6l0.3,0.7l2,0.3l0.3-0.3l12.9,3.6l0.3-0.3l1.6,0.7l1.3-1l-1-0.3v-0.7
			l-0.7-0.3c0,0,0,0-0.3-0.3s-0.7-0.3-0.7-0.7s0-0.7,0-0.7c0-0.3,0.3-0.3,0.7-0.7s0.7-1,0.7-1.3s0-1-0.3-1c0,0,0-0.3-0.3-0.3
			c0,0-0.3,0-0.3-0.3v-0.7c0,0,0.3-0.3,0.3-0.7s0-1.6-0.3-2c0,0-0.3,0-0.7,0c-0.3,0-0.3,0.3-0.3,1.3c0,1,0,0.7,0.3,1.3
			c0,0,0,0.7,0,1c-0.3,0.3,0,0.3-0.3,0.3c0,0-0.7,0.3-0.7,0.7c0,0,0,1.3,0,1.6c0.3,0.3,0.3,0.3,0.7,0.7c0.3,0.3,0.3,0,0.3,0.7
			c0,1,0,0.7-0.3,0.7c-0.3,0.3,0,0-0.7,0.3l-11.5-3v-0.7l-2.3-0.7l-0.3,0.3l-12.2-4l0,0v-4.3l19.1,5.6l2-1l-21.1-6.3V424l14.2,4.3
			v-0.7l-14.2-4.6v-5.6l14.2,4.6v-1.3l-14.2-4.6v-1.6l14.2,4.6v-1.3l-14.2-4.6v-1l14.5,4.6l0.7-1.6l-15.2-4.9l0.3-1.3l15.8,5.3
			l1.3,3.6l0.7-0.7l-1.6-4.3l-4.6-1.6v-1l-0.3-0.3V396l0.3-0.3l-0.3-0.3V395l0.3-0.3l-0.3-0.3l0.3-0.3l0.7-0.3l-2-1
			c0-0.3,0-1.3-0.3-2.3c-0.3-1.3-1.6-3.6-4-4.9l0.3-1l-2-0.7v1c-2.3-0.7-3.6,0.7-4.3,4l-1.3-0.3l0,0H865l-0.3-8.2l12.2,5.3l2,6.9
			l0.7-0.7l-2-8.6v-0.3l0.3-1.3l0.7-0.7l-0.7-0.3l0.7-1l1,0.3l0.3-0.7l-1.6-0.7l-1.6,1.6l-1.3-0.3l1-1l0.7,0.3l0.7-0.7l-1.3-0.7
			l-2,1.3l-1-0.3l1-1l1,0.3l0.7-0.3l-1.3-0.7l-2,1.6l-1.3-0.3l1.3-1l0.3-0.7l0.3-0.3l-1.3-0.7l-2,1.3l-1.3-0.3l1.3-1l0.7,0.3
			l0.7-0.7l-1.6-0.7l-2,1.3l-1-0.3l1-1l0.7,0.3l0.7-0.3l-1.6-0.7l-2,1.3l-1-0.7l1-1l0.7,0.3l0.7-0.7l-2-1v-0.7l14.8,6.3l2,9.9l0.3-1
			l-1.6-9.9l-15.5-6.3v-0.3l15.8,6.3l1.6,9.9h0.3l-1.6-10.2l-2.3-1l-0.7-3.6l-15.2-5.9l-0.3-1l10.2,4l-1-1l-9.6-3.6l-0.3-1.6
			l0.3,0.7l8.9,3.6l-0.7-1l-8.6-3.3l-0.3-1l7.9,3.3l0.3-1.3l-7.6-3.3l-0.3-0.7l7.3,2.6l-0.7-1.3l-6.9-3l-0.3-1l6.6,2.6l-0.7-1.3
			l-6.3-2.6l-0.7-3l5.6,2l-0.7-1.3l-5.3-2l-0.3-0.7l4.9,1.6l-0.7-1l-4.3-1.6l0,0l-0.3-1l3,1l-0.3-0.7l-2-0.7v-1.3l0.7-0.7l-0.3-1.3
			c0,0-1.3-0.3-1.6-1.6c0,0,0.3-1.3,0-1.6c-0.3-0.7-0.7-0.7-0.7-1.3l0,0c0.7-0.3,1.3-1,1.3-2c0-1-0.7-1.6-1.6-2
			c0.3,0,0.7-0.3,0.7-0.7s-0.3-0.7-0.7-0.7c0.3,0,0.3-0.3,0.3-0.3c0-0.3-0.3-0.3-0.3-0.3v-8.9l9.2,0.7c0,0-1.6-1-1.6-1.3
			s-0.7-0.7,1.3-0.7V324c0,0-1.3-0.3-1.3-1c0-0.3,0-0.3,1.3-1l-9.6-1v-5.9c0.3,0,0.7-0.3,0.7-0.7l3.3,0.7l0,0l-3.3-0.7
			c0-0.3-0.3-0.7-0.7-0.7l0,0l1-3v-0.3l-1,2.6v-6.6h-0.3v6.9c-0.3,0-0.3,0.3-0.7,0.3l-3.6-0.7l0,0l3.6,0.7v0.3
			c0,0.3,0.3,0.7,0.7,0.7l-0.7,1.6l0,0l0.7-1.6v5.9h-1.3l-0.7,0.7c0,0-1,0-1,1l-1-0.3v0.7l0.7,1.3l-1,0.3l0.7,0.7h0.7v0.3l0.7-0.3
			c0,0,0.3,1,1,1l1,1h1v8.9c-0.3,0-0.7,0.3-0.7,0.7s0.3,0.3,0.3,0.3c-0.3,0-0.7,0.3-0.7,0.7s0.3,0.7,0.3,0.7c-1,0.3-1.6,1-1.6,2
			c0,1,0.7,1.6,1.3,2l0,0v1c0,0-1.3,0.7-0.3,1.6c0,0-0.3,1.6-2,2l0.3,1.3l0.3,0.3v1c-1,0.7-2.6,1.6-3.6,3c-1,1.3-2.3,2.6-2.6,4.3
			c-0.3,1.6-3,7.6-3.6,8.2c-0.3,0.3-3.3,4.9-3.6,5.6c-0.7,0.7-5.9,4.3-5.9,4.3l0.7,2.6l0.3-0.3l-4.6,2.6l3.3,9.9h0.7l0.3,1l0.7,0.7
			V391v3.6L835,396l1,2.6v13.9l-1,1v0.3l-3.6,2.3l2.6,7.3v2.3l-0.3,0.3l0.3,0.7l0.3,0.3l-0.3,1.3l-0.3,0.3v0.3l0.3,0.3l-0.7,2.3
			l-4,2l2,4.3v1.3l-8.9,4.6l0,0l0,0c0,0,0-0.7,0-1c0-0.3,0.3-0.3,0.7-0.7c0,0,0.3-1,0.3-1.3s-0.3-1-0.3-1.3c0,0-0.3-0.3-0.7-0.7
			v-0.3l0.3-0.3c0,0,0-0.3,0-0.7c0-0.3-0.3-1.3-0.3-1.3c0-0.3-0.3-0.3-0.3-0.3s-0.3,0-0.3,0.3s-0.3,1.6,0,2.3v0.3
			c0,0-0.3,0.3-0.7,0.3c-0.3,0.3-0.7,0.7-0.7,1c0,0.3,0,0.7,0,1c0,0.3,0.3,0.7,0.7,1c0.3,0.3,0,0.7,0.3,1c0.3,0.3,0,0.3-0.7,0.7
			c-0.3,0.3,0,0.3-0.3,0.7l0,0l-1,0.7v0.7h0.3v0.7l-0.3,0.3l0.3,0.3v6.6l0,0l-0.3,1l-9.6-4v22.8l-8.9,11.9h59.1v-35.3l34.6,8.9
			l5.3-4l-2-1L902,452.7"/>
	</g>
</g>
<path class="st3" d="M907.6-17.3L907.6-17.3L907.6-17.3L907.6-17.3z M907.2-20.2l3.4-2.1v0.3l-3.3,2L907.2-20.2z M910.4-23.8
	l0.2,0.3l-3.7,2.2l-0.1-0.2l-0.1-0.2L910.4-23.8z M908.7-27.7L908.7-27.7L908.7-27.7l0.1-0.1v-0.1h-0.1V-28h0.1v-0.1l-0.3-0.1
	c0,0-0.2-0.6,0.5-1.5l-0.1-0.8l-1.2,0.7l0,0l-0.1-0.4l3.1-2l0,0v0.5l-1.5,0.9v0.9c0,0,0.5-0.2,0.6,0.4v0.1l-0.2,0.2v0.1h0.1l0.1,0.2
	h0.1v0.2v0.1l0.1,0.1v4.3l-0.2,0.2v0.1l-1.3,0.8L908.7-27.7L908.7-27.7L908.7-27.7L908.7-27.7z M910-35L910-35l0.1,0.1l-3.5,2.4
	l-0.1-0.2L910-35z M917.8-30.6L917.8-30.6l0.3,0.2v-0.1c0.4,0.2,0.8,0.9,0.9,1.4h-0.1v0.1l0,0v0.8h0.1v4.3h-0.1v0.3l-1.9-0.6v-0.4
	l-0.1-0.2l-0.1-4.2l0.2-0.1l-0.1-0.1l0.1-0.2v-0.1l0.3-0.2l-0.4-0.1C917-30,917.1-30.7,917.8-30.6z M910.6-22.8l-3.6,2.2l-0.1-0.3
	l3.7-2.3V-22.8L910.6-22.8z M912.1-24.6v-0.2l-0.1-4.4h0.1v-0.2l0.1-0.1v-0.1l0.1-0.1v-0.1H912c0,0,0.1-1,1.1-1.1v0.1h0.4v-0.1
	c0.8,0.1,1,0.5,1.1,1h-0.3v0.1l0.1,0.2v0.2l0.1,0.1v0.2h0.1v0.1v4.3l0,0v0.3l-2.4,0.2v-0.2L912.1-24.6z M910.6-33.7v0.2l-3.1,2.1
	v-0.1L910.6-33.7z M910.2-34.7v0.2l-0.1,0.1v0.4l-0.2,0.1v-0.4l-0.3,0.2v0.4l-0.2,0.1v-0.3l-0.2,0.1v0.3l-0.2,0.2l-0.1-0.3l-0.3,0.2
	v0.3l-0.2,0.1l-0.1-0.3l-0.2,0.2v0.3l-0.2,0.2v-0.3l-0.3,0.2v0.3l-0.2,0.1l-0.1-0.3l-0.2,0.2v0.3l-0.2,0.1v-0.3l-0.2,0.1l-0.1-0.2
	L910.2-34.7L910.2-34.7z M916.5-24.9L916.5-24.9l-0.1,0.4h-0.2v-0.3l-0.1-0.1l-0.1-4.4l0.5,0.1V-24.9z M907.8-30.6l-0.3-0.7v0.1
	l3.1-2.1l0.1,0.1v0.6l-0.1,0.1L907.8-30.6z M927.4-10.7L915-14.4l-1.7,0.9l-2.4-0.4v-3l0.9,0.3v0.1l1.7,0.3l1-0.5l0,0v0.1l0.4-0.2
	l0.3-0.1l0.6,0.2l0.1-0.1l4.2,1.4l0.1,0.2l0.6,0.1l0.1-0.1l3.9,1.1l0.1-0.1l0.5,0.2l0.4-0.3l-0.3-0.1v-0.2l-0.2-0.1c0,0,0,0-0.1-0.1
	c-0.1-0.1-0.2-0.1-0.2-0.2s0-0.2,0-0.2c0-0.1,0.1-0.1,0.2-0.2c0.1-0.1,0.2-0.3,0.2-0.4s0-0.3-0.1-0.3c0,0,0-0.1-0.1-0.1
	c0,0-0.1,0-0.1-0.1v-0.2c0,0,0.1-0.1,0.1-0.2s0-0.5-0.1-0.6c0,0-0.1,0-0.2,0s-0.1,0.1-0.1,0.4s0,0.2,0.1,0.4c0,0,0,0.2,0,0.3
	c-0.1,0.1,0,0.1-0.1,0.1c0,0-0.2,0.1-0.2,0.2c0,0,0,0.4,0,0.5c0.1,0.1,0.1,0.1,0.2,0.2c0.1,0.1,0.1,0,0.1,0.2c0,0.3,0,0.2-0.1,0.2
	c-0.1,0.1,0,0-0.2,0.1l-3.5-0.9v-0.2l-0.7-0.2l-0.1,0.1l-3.7-1.2l0,0v-1.3l5.8,1.7L923-17l-6.4-1.9v-0.5l4.3,1.3v-0.2l-4.3-1.4v-1.7
	l4.3,1.4v-0.4l-4.3-1.4v-0.5l4.3,1.4v-0.4l-4.3-1.4V-23l4.4,1.4l0.2-0.5l-4.6-1.5l0.1-0.4l4.8,1.6l0.4,1.1l0.2-0.2l-0.5-1.3
	l-1.4-0.5v-0.3l-0.1-0.1v-4.2l0.1-0.1l-0.1-0.1v-0.1l0.1-0.1l-0.1-0.1l0.1-0.1l0.2-0.1l-0.6-0.3c0-0.1,0-0.4-0.1-0.7
	c-0.1-0.4-0.5-1.1-1.2-1.5l0.1-0.3l-0.6-0.2v0.3c-0.7-0.2-1.1,0.2-1.3,1.2l-0.4-0.1l0,0h-0.1l-0.1-2.5l3.7,1.6l0.6,2.1l0.2-0.2
	l-0.6-2.6v-0.1l0.1-0.4l0.2-0.2l-0.2-0.1l0.2-0.3l0.3,0.1l0.1-0.2l-0.5-0.2l-0.5,0.5l-0.4-0.1l0.3-0.3l0.2,0.1l0.2-0.2l-0.4-0.2
	L919-33l-0.3-0.1l0.3-0.3l0.3,0.1l0.2-0.1l-0.4-0.2l-0.6,0.5l-0.4-0.1l0.4-0.3l0.1-0.2l0.1-0.1l-0.4-0.2l-0.6,0.4l-0.4-0.1l0.4-0.3
	l0.2,0.1l0.2-0.2l-0.5-0.2l-0.6,0.4l-0.3-0.1l0.3-0.3l0.2,0.1l0.2-0.1l-0.5-0.2l-0.6,0.4l-0.3-0.2l0.3-0.3l0.2,0.1l0.2-0.2l-0.6-0.3
	v-0.2l4.5,1.9l0.6,3l0.1-0.3l-0.5-3l-4.7-1.9v-0.1l4.8,1.9l0.5,3h0.1l-0.5-3.1l-0.7-0.3l-0.2-1.1l-4.6-1.8l-0.1-0.3l3.1,1.2
	l-0.3-0.3l-2.9-1.1l-0.1-0.5l0.1,0.2l2.7,1.1l-0.2-0.3l-2.6-1l-0.1-0.3l2.4,1l0.1-0.4l-2.3-1l-0.1-0.2l2.2,0.8l-0.2-0.4l-2.1-0.9
	l-0.1-0.3l2,0.8l-0.2-0.4l-1.9-0.8l-0.2-0.9l1.7,0.6l-0.2-0.4l-1.6-0.6l-0.1-0.2l1.5,0.5l-0.2-0.3l-1.3-0.5l0,0l-0.1-0.3l0.9,0.3
	l-0.1-0.2l-0.6-0.2v-0.4l0.2-0.2l-0.1-0.4c0,0-0.4-0.1-0.5-0.5c0,0,0.1-0.4,0-0.5c-0.1-0.2-0.2-0.2-0.2-0.4l0,0
	c0.2-0.1,0.4-0.3,0.4-0.6c0-0.3-0.2-0.5-0.5-0.6c0.1,0,0.2-0.1,0.2-0.2s-0.1-0.2-0.2-0.2c0.1,0,0.1-0.1,0.1-0.1
	c0-0.1-0.1-0.1-0.1-0.1v-2.7l2.8,0.2c0,0-0.5-0.3-0.5-0.4s-0.2-0.2,0.4-0.2v-0.1c0,0-0.4-0.1-0.4-0.3c0-0.1,0-0.1,0.4-0.3l-2.9-0.3
	v-1.8c0.1,0,0.2-0.1,0.2-0.2l1,0.2l0,0l-1-0.2c0-0.1-0.1-0.2-0.2-0.2l0,0l0.3-0.9v-0.1l-0.3,0.8v-2h-0.1v2.1c-0.1,0-0.1,0.1-0.2,0.1
	l-1.1-0.2l0,0l1.1,0.2v0.1c0,0.1,0.1,0.2,0.2,0.2l-0.2,0.5l0,0l0.2-0.5v1.8h-0.4l-0.2,0.2c0,0-0.3,0-0.3,0.3l-0.3-0.1v0.2l0.2,0.4
	l-0.3,0.1l0.2,0.2h0.2v0.1l0.2-0.1c0,0,0.1,0.3,0.3,0.3l0.3,0.3h0.3v2.7c-0.1,0-0.2,0.1-0.2,0.2s0.1,0.1,0.1,0.1
	c-0.1,0-0.2,0.1-0.2,0.2s0.1,0.2,0.1,0.2c-0.3,0.1-0.5,0.3-0.5,0.6c0,0.3,0.2,0.5,0.4,0.6l0,0v0.3c0,0-0.4,0.2-0.1,0.5
	c0,0-0.1,0.5-0.6,0.6l0.1,0.4l0.1,0.1v0.3c-0.3,0.2-0.8,0.5-1.1,0.9s-0.7,0.8-0.8,1.3c-0.1,0.5-0.9,2.3-1.1,2.5
	c-0.1,0.1-1,1.5-1.1,1.7c-0.2,0.2-1.8,1.3-1.8,1.3l0.2,0.8l0.1-0.1l-1.4,0.8l1,3h0.2l0.1,0.3l0.2,0.2v-0.1v1.1l-0.4,0.4l0.3,0.8v4.2
	l-0.3,0.3v0.1l-1.1,0.7l0.8,2.2v0.7l-0.1,0.1l0.1,0.2l0.1,0.1l-0.1,0.4l-0.1,0.1v0.1l0.1,0.1l-0.2,0.7l-1.2,0.6l0.6,1.3v0.4
	l-2.7,1.4l0,0l0,0c0,0,0-0.2,0-0.3c0-0.1,0.1-0.1,0.2-0.2c0,0,0.1-0.3,0.1-0.4s-0.1-0.3-0.1-0.4c0,0-0.1-0.1-0.2-0.2V-15l0.1-0.1
	c0,0,0-0.1,0-0.2s-0.1-0.4-0.1-0.4c0-0.1-0.1-0.1-0.1-0.1s-0.1,0-0.1,0.1s-0.1,0.5,0,0.7v0.1c0,0-0.1,0.1-0.2,0.1
	c-0.1,0.1-0.2,0.2-0.2,0.3c0,0.1,0,0.2,0,0.3c0,0.1,0.1,0.2,0.2,0.3c0.1,0.1,0,0.2,0.1,0.3c0.1,0.1,0,0.1-0.2,0.2
	c-0.1,0.1,0,0.1-0.1,0.2l0,0l-0.3,0.2v0.2h0.1v0.2l-0.1,0.1l0.1,0.1v2l0,0l-0.1,0.3l-2.9-1.2v6.9l-2.7,3.6h17.9v-10.7l10.5,2.7
	l1.6-1.2l-0.6-0.3L927.4-10.7"/>
</svg>
